<?xml version="1.0" encoding="utf-8"?>
<!-- Generator: Adobe Illustrator 26.0.1, SVG Export Plug-In . SVG Version: 6.00 Build 0)  -->
<svg version="1.1" id="Layer_1" xmlns="http://www.w3.org/2000/svg" xmlns:xlink="http://www.w3.org/1999/xlink" x="0px" y="0px"
	 viewBox="0 0 140 140" style="enable-background:new 0 0 140 140;" xml:space="preserve">
<style type="text/css">
	.st0{fill:#FFFFFF;stroke:#000000;stroke-width:1.5;stroke-miterlimit:10;}
	.st1{fill:#FFFFFF;}
</style>
<polygon points="11.58,34.27 70.17,2.72 128.77,34.27 128.77,106.45 70.17,138 11.58,106.45 "/>
<polygon class="st0" points="15.53,104.53 15.53,36.5 70.65,6.83 125.77,36.5 125.77,104.53 70.65,134.21 "/>
<g>
	<circle class="st1" cx="105.01" cy="37.4" r="4.25"/>
	<path d="M105.01,33.9c1.93,0,3.5,1.57,3.5,3.5s-1.57,3.5-3.5,3.5s-3.5-1.57-3.5-3.5S103.08,33.9,105.01,33.9 M105.01,32.4
		c-2.76,0-5,2.24-5,5s2.24,5,5,5s5-2.24,5-5S107.77,32.4,105.01,32.4L105.01,32.4z"/>
</g>
<g>
	<path class="st1" d="M91.74,107.55c-0.54,0-1.08-0.1-1.58-0.31c-1.05-0.42-1.88-1.23-2.32-2.28c-0.45-1.04-0.46-2.2-0.03-3.25
		c0.65-1.62,2.2-2.67,3.95-2.67c0.54,0,1.07,0.1,1.58,0.31c2.17,0.87,3.23,3.35,2.36,5.53C95.03,106.51,93.48,107.55,91.74,107.55z"
		/>
	<path d="M91.74,99.8L91.74,99.8c0.45,0,0.88,0.09,1.3,0.25c1.79,0.72,2.66,2.76,1.94,4.55c-0.54,1.33-1.81,2.2-3.25,2.2
		c-0.45,0-0.88-0.09-1.3-0.25c-1.79-0.72-2.66-2.76-1.94-4.55C89.03,100.66,90.3,99.8,91.74,99.8 M91.74,98.3
		c-1.98,0-3.86,1.19-4.64,3.14c-1.03,2.56,0.21,5.47,2.78,6.5c0.61,0.25,1.24,0.36,1.86,0.36c1.98,0,3.86-1.19,4.64-3.14
		c1.03-2.56-0.21-5.47-2.78-6.5C92.99,98.42,92.36,98.3,91.74,98.3L91.74,98.3z"/>
</g>
<g>
	<path class="st1" d="M86.74,74.77c-2.34,0-4.25-1.91-4.25-4.25s1.91-4.25,4.25-4.25s4.25,1.91,4.25,4.25S89.08,74.77,86.74,74.77z"
		/>
	<path d="M86.74,67.02c1.93,0,3.5,1.57,3.5,3.5s-1.57,3.5-3.5,3.5s-3.5-1.57-3.5-3.5S84.81,67.02,86.74,67.02 M86.74,65.52
		c-2.76,0-5,2.24-5,5s2.24,5,5,5c2.76,0,5-2.24,5-5S89.5,65.52,86.74,65.52L86.74,65.52z"/>
</g>
<g>
	<circle class="st1" cx="43.29" cy="103.3" r="4.25"/>
	<path d="M43.29,99.8c1.93,0,3.5,1.57,3.5,3.5s-1.57,3.5-3.5,3.5s-3.5-1.57-3.5-3.5S41.36,99.8,43.29,99.8 M43.29,98.3
		c-2.76,0-5,2.24-5,5c0,2.76,2.24,5,5,5c2.76,0,5-2.24,5-5C48.29,100.54,46.05,98.3,43.29,98.3L43.29,98.3z"/>
</g>
<g>
	<circle class="st1" cx="116.29" cy="59.35" r="4.25"/>
	<path d="M116.29,55.85c1.93,0,3.5,1.57,3.5,3.5s-1.57,3.5-3.5,3.5s-3.5-1.57-3.5-3.5S114.36,55.85,116.29,55.85 M116.29,54.35
		c-2.76,0-5,2.24-5,5c0,2.76,2.24,5,5,5s5-2.24,5-5C121.29,56.59,119.05,54.35,116.29,54.35L116.29,54.35z"/>
</g>
<g>
	<circle class="st1" cx="54.28" cy="37.4" r="4.25"/>
	<path d="M54.28,33.9c1.93,0,3.5,1.57,3.5,3.5s-1.57,3.5-3.5,3.5s-3.5-1.57-3.5-3.5S52.35,33.9,54.28,33.9 M54.28,32.4
		c-2.76,0-5,2.24-5,5s2.24,5,5,5c2.76,0,5-2.24,5-5S57.04,32.4,54.28,32.4L54.28,32.4z"/>
</g>
<g>
	<circle class="st1" cx="79.46" cy="37.4" r="4.25"/>
	<path d="M79.46,33.9c1.93,0,3.5,1.57,3.5,3.5s-1.57,3.5-3.5,3.5s-3.5-1.57-3.5-3.5S77.53,33.9,79.46,33.9 M79.46,32.4
		c-2.76,0-5,2.24-5,5s2.24,5,5,5c2.76,0,5-2.24,5-5S82.22,32.4,79.46,32.4L79.46,32.4z"/>
</g>
<g>
	<circle class="st1" cx="30.04" cy="82.01" r="4.25"/>
	<path d="M30.04,78.51c1.93,0,3.5,1.57,3.5,3.5c0,1.93-1.57,3.5-3.5,3.5s-3.5-1.57-3.5-3.5C26.54,80.08,28.11,78.51,30.04,78.51
		 M30.04,77.01c-2.76,0-5,2.24-5,5s2.24,5,5,5c2.76,0,5-2.24,5-5S32.8,77.01,30.04,77.01L30.04,77.01z"/>
</g>
<g>
	<path class="st1" d="M68.99,108.42c-2.18,0-3.99-1.63-4.22-3.8c-0.25-2.33,1.45-4.43,3.78-4.67c0.15-0.02,0.3-0.02,0.45-0.02
		c2.18,0,3.99,1.63,4.22,3.8c0.12,1.13-0.21,2.24-0.92,3.12c-0.71,0.88-1.73,1.44-2.86,1.55C69.3,108.41,69.14,108.42,68.99,108.42z
		"/>
	<path d="M69.01,100.67c1.79,0,3.28,1.35,3.47,3.13c0.1,0.93-0.17,1.84-0.76,2.57c-0.59,0.73-1.42,1.18-2.35,1.28
		c-0.13,0.01-0.25,0.02-0.38,0.02c-1.79,0-3.28-1.35-3.47-3.13c-0.1-0.93,0.17-1.84,0.76-2.57c0.59-0.73,1.42-1.18,2.35-1.28
		C68.76,100.68,68.88,100.67,69.01,100.67 M69.01,99.17c-0.18,0-0.35,0.01-0.53,0.03c-2.75,0.29-4.74,2.75-4.44,5.5
		c0.27,2.57,2.44,4.47,4.97,4.47c0.18,0,0.35-0.01,0.53-0.03c2.75-0.29,4.74-2.75,4.44-5.5C73.7,101.08,71.53,99.17,69.01,99.17
		L69.01,99.17z"/>
</g>
<polygon points="94.03,99.67 92.3,98.68 102.64,80.58 92.03,59.35 102.5,41.03 104.24,42.02 94.3,59.42 104.91,80.64 "/>
<polygon points="32.48,78.74 30.75,77.75 41.65,58.66 67.21,58.35 76.98,41.03 78.72,42.02 68.39,60.34 42.82,60.65 "/>
<rect x="43.56" y="47.76" transform="matrix(0.498 -0.8672 0.8672 0.498 -17.9541 66.5015)" width="9.81" height="2"/>
<rect x="45.24" y="89.76" transform="matrix(0.5165 -0.8563 0.8563 0.5165 -53.6213 86.5576)" width="9.2" height="2"/>
<rect x="52.06" y="77.85" transform="matrix(0.5165 -0.8563 0.8563 0.5165 -40.1255 86.6367)" width="9.2" height="2"/>
<rect x="69.77" y="92.41" transform="matrix(0.4931 -0.87 0.87 0.4931 -43.5201 112.1318)" width="9.38" height="2"/>
<rect x="76.21" y="81.01" transform="matrix(0.4747 -0.8801 0.8801 0.4747 -29.7255 114.2056)" width="9.22" height="2"/>
</svg>
