<?xml version="1.0" encoding="UTF-8" standalone="no"?>
<svg
   xmlns:dc="http://purl.org/dc/elements/1.1/"
   xmlns:cc="http://creativecommons.org/ns#"
   xmlns:rdf="http://www.w3.org/1999/02/22-rdf-syntax-ns#"
   xmlns:svg="http://www.w3.org/2000/svg"
   xmlns="http://www.w3.org/2000/svg"
   xmlns:sodipodi="http://sodipodi.sourceforge.net/DTD/sodipodi-0.dtd"
   xmlns:inkscape="http://www.inkscape.org/namespaces/inkscape"
   inkscape:version="1.0beta2 (2b71d25, 2019-12-03)"
   sodipodi:docname="openmainframeproject-icon-color.svg"
   viewBox="0 0 533.33331 533.33331"
   height="533.33331"
   width="533.33331"
   xml:space="preserve"
   id="svg146"
   version="1.1"><metadata
     id="metadata152"><rdf:RDF><cc:Work
         rdf:about=""><dc:format>image/svg+xml</dc:format><dc:type
           rdf:resource="http://purl.org/dc/dcmitype/StillImage" /><dc:title></dc:title></cc:Work></rdf:RDF></metadata><defs
     id="defs150"><clipPath
       id="clipPath162"
       clipPathUnits="userSpaceOnUse"><path
         inkscape:connector-curvature="0"
         id="path160"
         d="M 0,400 H 400 V 0 H 0 Z" /></clipPath><clipPath
       id="clipPath174"
       clipPathUnits="userSpaceOnUse"><path
         inkscape:connector-curvature="0"
         id="path172"
         d="M 184.682,371.155 59.434,298.844 C 49.955,293.371 44.116,283.257 44.116,272.311 v 0 -144.623 c 0,-10.945 5.839,-21.059 15.318,-26.532 v 0 L 184.682,28.844 c 9.479,-5.472 21.157,-5.472 30.637,0 v 0 l 125.246,72.312 c 9.48,5.473 15.319,15.587 15.319,26.532 v 0 144.623 c 0,10.946 -5.839,21.06 -15.319,26.533 v 0 l -125.246,72.311 c -4.74,2.737 -10.03,4.105 -15.319,4.105 v 0 c -5.29,0 -10.579,-1.368 -15.318,-4.105" /></clipPath><clipPath
       id="clipPath182"
       clipPathUnits="userSpaceOnUse"><path
         inkscape:connector-curvature="0"
         id="path180"
         d="M 88.2366,296.214 H 546.026 V -130.477 H 88.2366 Z" /></clipPath><clipPath
       id="clipPath198"
       clipPathUnits="userSpaceOnUse"><path
         inkscape:connector-curvature="0"
         id="path196"
         d="M 0,400 H 400 V 0 H 0 Z" /></clipPath></defs><sodipodi:namedview
     inkscape:current-layer="g154"
     inkscape:window-maximized="0"
     inkscape:window-y="23"
     inkscape:window-x="57"
     inkscape:cy="266.66666"
     inkscape:cx="266.66666"
     inkscape:zoom="0.51000002"
     showgrid="false"
     id="namedview148"
     inkscape:window-height="480"
     inkscape:window-width="759"
     inkscape:pageshadow="2"
     inkscape:pageopacity="0"
     guidetolerance="10"
     gridtolerance="10"
     objecttolerance="10"
     borderopacity="1"
     inkscape:document-rotation="0"
     bordercolor="#666666"
     pagecolor="#ffffff" /><g
     transform="matrix(1.3333333,0,0,-1.3333333,0,533.33333)"
     inkscape:label="OpenMainframe_TwitterIcon"
     inkscape:groupmode="layer"
     id="g154"><g
       id="g156"><g
         clip-path="url(#clipPath162)"
         id="g158"><g
           transform="translate(340.5658,298.8439)"
           id="g164"><path
             inkscape:connector-curvature="0"
             id="path166"
             style="fill:#2b7de1;fill-opacity:1;fill-rule:nonzero;stroke:none"
             d="m 0,0 -125.247,72.312 c -9.479,5.472 -21.158,5.472 -30.637,0 L -281.132,0 c -9.479,-5.473 -15.318,-15.587 -15.318,-26.532 v -144.624 c 0,-10.945 5.839,-21.059 15.318,-26.532 L -155.884,-270 c 9.479,-5.472 21.158,-5.472 30.637,0 L 0,-197.688 c 9.479,5.473 15.318,15.587 15.318,26.532 V -26.532 C 15.318,-15.587 9.479,-5.473 0,0" /></g></g></g><g
       id="g168"><g
         clip-path="url(#clipPath174)"
         id="g170"><g
           id="g176"><g
             id="g178" /><g
             id="g190"><g
               id="g188"
               opacity="0.399994"
               clip-path="url(#clipPath182)"><g
                 id="g186"
                 transform="translate(545.7916,31.0736)"><path
                   inkscape:connector-curvature="0"
                   id="path184"
                   style="fill:#231f20;fill-opacity:1;fill-rule:nonzero;stroke:none"
                   d="M 0,0 V 0.099 L -0.234,0.234 V 0.333 L -0.468,0.468 V 0.567 L -0.702,0.702 V 0.801 L -0.936,0.936 V 1.035 L -1.17,1.17 V 1.269 L -1.404,1.404 V 1.503 L -1.638,1.638 V 1.737 L -1.872,1.872 V 1.971 L -2.106,2.106 V 2.205 L -2.34,2.34 V 2.439 L -2.574,2.574 V 2.673 L -2.808,2.808 V 2.907 L -3.042,3.042 V 3.141 L -3.276,3.276 V 3.375 L -3.51,3.51 V 3.609 L -3.745,3.745 V 3.843 L -3.979,3.979 V 4.077 L -4.212,4.212 V 4.311 L -4.447,4.447 V 4.546 L -4.681,4.681 V 4.779 L -4.915,4.915 V 5.013 L -5.149,5.149 V 5.248 L -5.383,5.383 V 5.482 L -5.617,5.617 V 5.716 L -5.851,5.851 V 5.95 L -6.085,6.085 V 6.184 L -6.319,6.319 V 6.418 L -6.553,6.553 V 6.652 L -6.787,6.787 V 6.886 L -7.021,7.021 V 7.12 L -7.255,7.255 V 7.354 L -7.489,7.489 V 7.588 L -7.723,7.723 V 7.822 L -7.957,7.957 V 8.056 L -8.191,8.191 V 8.29 L -8.425,8.425 V 8.524 L -8.659,8.659 V 8.758 L -8.893,8.893 V 8.992 L -9.127,9.127 V 9.226 L -9.361,9.361 V 9.46 l -0.234,0.135 v 0.099 l -0.234,0.135 v 0.099 l -0.234,0.135 v 0.099 l -0.234,0.135 v 0.099 l -0.234,0.135 v 0.099 l -0.234,0.135 v 0.099 l -0.234,0.135 v 0.099 l -0.234,0.135 v 0.099 l -0.234,0.135 v 0.099 l -0.234,0.135 V 11.8 l -0.234,0.136 v 0.098 l -0.234,0.135 v 0.099 l -0.234,0.135 v 0.099 l -0.235,0.136 v 0.098 l -0.234,0.136 v 0.098 l -0.234,0.136 v 0.098 l -0.234,0.136 v 0.099 l -0.234,0.135 v 0.099 l -0.234,0.135 v 0.099 l -0.234,0.135 v 0.099 l -0.234,0.135 v 0.099 l -0.234,0.135 v 0.099 l -0.234,0.135 v 0.099 l -0.234,0.135 v 0.099 l -0.234,0.135 v 0.099 l -0.234,0.135 v 0.099 l -0.234,0.135 v 0.099 l -0.234,0.135 v 0.099 l -0.234,0.135 v 0.099 l -0.234,0.135 v 0.099 l -0.234,0.135 v 0.099 l -0.234,0.135 v 0.099 l -0.234,0.135 v 0.099 l -0.234,0.135 v 0.099 l -0.234,0.135 v 0.099 l -0.234,0.135 v 0.099 l -0.234,0.135 v 0.099 l -0.234,0.135 v 0.099 l -0.234,0.135 v 0.099 l -0.234,0.135 v 0.099 l -0.234,0.135 v 0.099 l -0.234,0.135 v 0.099 l -0.234,0.135 v 0.099 l -0.234,0.135 v 0.099 l -0.234,0.135 v 0.099 l -0.234,0.135 v 0.099 l -0.234,0.135 v 0.099 l -0.234,0.135 v 0.099 l -0.235,0.136 v 0.098 l -0.234,0.136 v 0.098 l -0.234,0.136 v 0.098 l -0.234,0.135 v 0.1 l -0.234,0.135 v 0.099 l -0.234,0.135 v 0.099 l -0.234,0.135 v 0.099 l -0.234,0.135 v 0.099 l -0.234,0.135 V 22.8 l -0.234,0.135 v 0.099 l -0.234,0.135 v 0.099 l -0.234,0.135 v 0.099 l -0.234,0.135 v 0.099 l -0.234,0.135 v 0.099 l -0.234,0.135 v 0.099 l -0.234,0.135 v 0.099 l -0.234,0.135 v 0.099 l -0.234,0.135 v 0.099 l -0.234,0.135 v 0.099 l -0.234,0.135 v 0.099 l -0.234,0.135 v 0.099 l -0.234,0.135 v 0.099 l -0.234,0.135 v 0.099 l -0.234,0.135 v 0.099 l -0.234,0.135 v 0.099 l -0.234,0.135 v 0.099 l -0.234,0.135 v 0.099 l -0.234,0.135 v 0.099 l -0.234,0.135 v 0.099 l -0.234,0.135 v 0.099 l -0.234,0.135 v 0.099 l -0.234,0.135 v 0.099 l -0.234,0.135 v 0.099 l -0.234,0.135 v 0.099 l -0.235,0.136 v 0.098 l -0.234,0.136 v 0.098 l -0.234,0.136 v 0.098 l -0.234,0.136 v 0.099 l -0.234,0.135 v 0.099 l -0.234,0.135 v 0.099 l -0.234,0.135 v 0.099 l -0.234,0.135 v 0.099 l -0.234,0.135 v 0.099 l -0.234,0.135 v 0.099 l -0.234,0.135 v 0.099 l -0.234,0.135 v 0.099 l -0.234,0.135 v 0.099 l -0.234,0.135 v 0.099 l -0.234,0.135 v 0.099 l -0.234,0.135 v 0.099 l -0.234,0.135 v 0.099 l -0.234,0.135 v 0.099 l -0.234,0.135 v 0.099 l -0.234,0.135 v 0.099 l -0.234,0.135 v 0.099 L -33.7,33.7 v 0.099 l -0.234,0.135 v 0.099 l -0.234,0.135 v 0.099 l -0.234,0.135 v 0.099 l -0.234,0.135 v 0.099 l -0.234,0.135 v 0.099 l -0.234,0.135 v 0.099 l -0.234,0.135 v 0.099 l -0.234,0.135 v 0.099 l -0.234,0.135 v 0.099 l -0.234,0.135 v 0.099 l -0.234,0.135 v 0.099 l -0.234,0.135 v 0.099 l -0.234,0.135 v 0.099 l -0.235,0.136 v 0.098 l -0.234,0.136 v 0.098 l -0.234,0.136 v 0.098 l -0.234,0.136 v 0.099 l -0.234,0.135 v 0.099 l -0.234,0.135 v 0.098 l -0.234,0.136 v 0.099 l -0.234,0.135 v 0.099 l -0.234,0.135 v 0.099 l -0.234,0.135 v 0.099 l -0.234,0.135 v 0.099 l -0.234,0.135 v 0.099 l -0.234,0.135 v 0.099 l -0.234,0.135 v 0.099 l -0.234,0.135 v 0.099 l -0.234,0.135 v 0.099 l -0.234,0.135 v 0.099 l -0.234,0.135 v 0.099 l -0.234,0.135 v 0.099 l -0.234,0.135 v 0.099 l -0.234,0.135 v 0.099 l -0.234,0.135 v 0.099 l -0.234,0.135 v 0.099 l -0.234,0.135 v 0.099 l -0.234,0.135 v 0.099 l -0.234,0.135 v 0.099 l -0.234,0.135 v 0.099 l -0.234,0.135 v 0.099 l -0.234,0.135 v 0.099 l -0.234,0.135 v 0.099 l -0.234,0.135 v 0.099 l -0.234,0.135 v 0.099 l -0.234,0.135 v 0.099 l -0.234,0.135 v 0.099 l -0.234,0.135 v 0.099 l -0.235,0.136 v 0.098 l -0.234,0.136 V 45.5 l -0.233,0.135 v 0.099 l -0.235,0.136 v 0.099 l -0.234,0.135 v 0.098 l -0.234,0.136 v 0.098 l -0.234,0.136 v 0.099 l -0.234,0.135 v 0.099 l -0.234,0.135 v 0.099 l -0.234,0.135 v 0.099 l -0.234,0.135 v 0.099 l -0.234,0.135 v 0.099 l -0.234,0.135 v 0.099 l -0.234,0.135 v 0.099 l -0.234,0.135 v 0.099 l -0.234,0.135 v 0.099 l -0.234,0.135 v 0.099 l -0.234,0.135 v 0.099 l -0.234,0.135 v 0.099 l -0.234,0.135 v 0.099 l -0.234,0.135 v 0.099 l -0.234,0.135 v 0.099 l -0.234,0.135 v 0.099 l -0.234,0.135 v 0.099 l -0.234,0.135 v 0.099 l -0.234,0.135 v 0.099 l -0.234,0.135 v 0.099 l -0.234,0.135 v 0.099 l -0.234,0.135 v 0.099 l -0.234,0.135 v 0.099 l -0.234,0.135 v 0.099 l -0.234,0.135 v 0.099 l -0.234,0.135 v 0.099 l -0.234,0.135 v 0.099 l -0.234,0.135 v 0.099 l -0.235,0.136 v 0.098 l -0.233,0.135 v 0.099 l -0.234,0.135 v 0.099 l -0.235,0.136 v 0.098 l -0.234,0.136 v 0.098 l -0.234,0.136 v 0.098 l -0.234,0.136 v 0.099 l -0.234,0.135 v 0.099 l -0.234,0.135 v 0.099 l -0.234,0.135 v 0.099 l -0.234,0.135 v 0.099 l -0.234,0.135 v 0.099 l -0.234,0.135 v 0.099 l -0.234,0.135 V 56.5 l -0.234,0.135 v 0.099 l -0.234,0.135 v 0.099 l -0.234,0.135 v 0.099 l -0.234,0.135 v 0.099 l -0.234,0.135 v 0.099 l -0.234,0.135 v 0.099 l -0.234,0.135 v 0.099 l -0.234,0.135 v 0.099 l -0.234,0.135 v 0.099 l -0.234,0.135 v 0.099 l -0.234,0.135 v 0.099 l -0.234,0.135 v 0.099 l -0.234,0.135 v 0.099 l -0.234,0.135 v 0.099 l -0.234,0.135 v 0.099 l -0.234,0.135 v 0.099 l -0.234,0.135 v 0.099 l -0.234,0.135 v 0.099 l -0.234,0.135 v 0.099 l -0.234,0.135 v 0.099 l -0.234,0.135 v 0.099 l -0.234,0.135 v 0.099 l -0.234,0.135 v 0.099 l -0.234,0.135 v 0.099 l -0.235,0.136 v 0.098 l -0.234,0.136 v 0.098 l -0.234,0.136 v 0.098 l -0.234,0.136 v 0.099 l -0.234,0.135 v 0.099 l -0.234,0.135 v 0.098 l -0.234,0.136 v 0.099 l -0.234,0.135 v 0.099 l -0.234,0.135 v 0.099 l -0.234,0.135 v 0.099 l -0.234,0.135 v 0.099 l -0.234,0.135 v 0.099 l -0.234,0.135 v 0.099 l -0.234,0.135 v 0.099 l -0.234,0.135 v 0.099 l -0.234,0.135 v 0.099 l -0.234,0.135 v 0.099 l -0.234,0.135 v 0.099 l -0.234,0.135 v 0.099 l -0.234,0.135 v 0.099 l -0.234,0.135 v 0.099 l -0.234,0.135 v 0.099 L -67.4,67.4 v 0.099 l -0.234,0.135 v 0.099 l -0.234,0.135 v 0.099 l -0.234,0.135 v 0.099 l -0.234,0.135 v 0.099 l -0.234,0.135 v 0.099 l -0.234,0.135 v 0.099 l -0.234,0.135 v 0.099 l -0.234,0.135 v 0.099 l -0.234,0.135 v 0.099 l -0.234,0.135 v 0.099 l -0.234,0.135 v 0.099 l -0.234,0.135 v 0.099 l -0.235,0.136 v 0.098 l -0.234,0.136 v 0.098 l -0.234,0.136 v 0.098 l -0.234,0.135 v 0.1 l -0.234,0.135 v 0.098 l -0.234,0.136 v 0.099 l -0.234,0.135 v 0.099 l -0.234,0.135 v 0.099 l -0.234,0.135 v 0.099 l -0.234,0.135 v 0.099 l -0.234,0.135 v 0.099 l -0.234,0.135 v 0.099 l -0.234,0.135 v 0.099 l -0.234,0.135 v 0.099 l -0.234,0.135 v 0.099 l -0.234,0.135 v 0.099 l -0.234,0.135 v 0.099 l -0.234,0.135 v 0.099 l -0.234,0.135 v 0.099 l -0.234,0.135 v 0.099 l -0.234,0.135 v 0.099 l -0.234,0.135 v 0.099 l -0.234,0.135 v 0.099 l -0.234,0.135 v 0.099 l -0.234,0.135 v 0.099 l -0.234,0.135 v 0.099 l -0.234,0.135 v 0.099 l -0.234,0.135 v 0.099 l -0.234,0.135 v 0.099 l -0.234,0.135 v 0.099 l -0.234,0.135 v 0.099 l -0.234,0.135 v 0.099 l -0.234,0.135 v 0.099 l -0.234,0.135 v 0.099 L -78.4,78.4 v 0.098 l -0.234,0.136 v 0.098 l -0.233,0.135 v 0.099 l -0.235,0.136 v 0.099 l -0.234,0.135 v 0.098 l -0.234,0.136 v 0.098 l -0.234,0.136 v 0.099 l -0.234,0.135 v 0.099 l -0.234,0.135 v 0.099 l -0.234,0.135 v 0.099 l -0.234,0.135 v 0.099 l -0.234,0.135 v 0.099 l -0.234,0.135 v 0.099 l -0.234,0.135 v 0.099 l -0.234,0.135 v 0.099 l -0.234,0.135 v 0.099 l -0.234,0.135 v 0.099 l -0.234,0.135 v 0.099 l -0.234,0.135 v 0.099 l -0.234,0.135 v 0.099 l -0.234,0.135 v 0.099 l -0.234,0.135 v 0.099 l -0.234,0.135 v 0.099 l -0.234,0.135 v 0.099 l -0.234,0.135 v 0.099 l -0.234,0.135 v 0.099 l -0.234,0.135 v 0.099 l -0.234,0.135 v 0.099 l -0.234,0.135 v 0.099 l -0.234,0.135 v 0.099 l -0.234,0.135 v 0.099 l -0.234,0.135 v 0.099 l -0.234,0.135 v 0.099 l -0.234,0.135 v 0.099 l -0.234,0.135 v 0.099 l -0.235,0.136 v 0.098 l -0.233,0.135 v 0.099 l -0.234,0.135 v 0.099 l -0.235,0.136 v 0.098 l -0.234,0.136 v 0.098 l -0.234,0.136 v 0.098 l -0.234,0.136 v 0.099 l -0.234,0.135 v 0.099 l -0.234,0.135 v 0.099 l -0.234,0.135 v 0.099 l -0.234,0.135 v 0.099 l -0.234,0.135 v 0.099 l -0.234,0.135 v 0.099 l -0.234,0.135 v 0.099 l -0.234,0.135 v 0.099 l -0.234,0.135 V 90.2 l -0.234,0.135 v 0.099 l -0.234,0.135 v 0.099 l -0.234,0.135 v 0.099 l -0.234,0.135 v 0.099 l -0.234,0.135 v 0.099 l -0.234,0.135 v 0.099 l -0.234,0.135 v 0.099 l -0.234,0.135 v 0.099 l -0.234,0.135 v 0.099 l -0.234,0.135 v 0.099 l -0.234,0.135 v 0.099 l -0.234,0.135 v 0.099 l -0.234,0.135 v 0.099 l -0.234,0.135 v 0.099 l -0.234,0.135 v 0.099 l -0.234,0.135 v 0.099 l -0.234,0.135 v 0.099 l -0.234,0.135 v 0.099 l -0.234,0.135 v 0.099 l -0.234,0.135 v 0.099 l -0.234,0.135 v 0.099 l -0.234,0.135 v 0.099 l -0.235,0.136 v 0.098 l -0.234,0.136 v 0.098 l -0.234,0.136 v 0.098 l -0.234,0.136 v 0.099 l -0.234,0.135 v 0.099 l -0.234,0.135 v 0.099 l -0.234,0.135 v 0.099 l -0.234,0.135 v 0.099 l -0.234,0.135 v 0.099 l -0.234,0.135 v 0.099 l -0.234,0.135 v 0.099 l -0.234,0.135 v 0.099 l -0.234,0.135 v 0.099 l -0.234,0.135 v 0.099 l -0.234,0.135 v 0.099 l -0.234,0.135 v 0.099 l -0.234,0.135 v 0.099 l -0.234,0.135 v 0.099 l -0.234,0.135 v 0.099 l -0.234,0.135 v 0.099 l -0.234,0.135 v 0.099 l -0.234,0.135 v 0.099 l -0.234,0.135 v 0.099 l -0.234,0.135 v 0.099 l -0.234,0.135 v 0.099 l -0.234,0.135 v 0.099 l -0.234,0.135 v 0.099 l -0.234,0.135 v 0.099 l -0.234,0.135 v 0.099 l -0.234,0.135 v 0.099 l -0.234,0.135 v 0.099 l -0.234,0.135 v 0.099 l -0.234,0.135 v 0.099 l -0.234,0.135 v 0.099 l -0.234,0.135 v 0.099 l -0.235,0.136 v 0.098 l -0.234,0.136 v 0.098 l -0.234,0.136 v 0.098 l -0.234,0.136 v 0.099 l -0.234,0.135 v 0.099 l -0.234,0.135 v 0.098 l -0.234,0.136 v 0.099 l -0.234,0.135 v 0.099 l -0.234,0.135 v 0.099 l -0.234,0.135 v 0.099 l -0.234,0.135 v 0.099 l -0.234,0.135 v 0.099 l -0.234,0.135 v 0.099 l -0.234,0.135 v 0.099 l -0.234,0.135 v 0.099 l -0.234,0.135 v 0.099 l -0.234,0.135 v 0.099 l -0.234,0.135 v 0.099 l -0.234,0.135 v 0.099 l -0.234,0.135 v 0.099 l -0.234,0.135 v 0.099 l -0.234,0.135 v 0.099 l -0.234,0.135 v 0.099 l -0.234,0.135 v 0.099 l -0.234,0.135 v 0.099 l -0.234,0.135 v 0.099 l -0.234,0.135 v 0.099 l -0.234,0.135 v 0.099 l -0.234,0.135 v 0.099 l -0.234,0.135 v 0.099 l -0.234,0.135 v 0.099 l -0.234,0.135 v 0.099 l -0.234,0.135 v 0.099 l -0.234,0.135 v 0.099 l -0.234,0.135 v 0.099 l -0.235,0.136 v 0.098 l -0.234,0.136 v 0.098 l -0.233,0.135 v 0.099 l -0.235,0.136 v 0.099 l -0.234,0.135 v 0.098 l -0.234,0.136 v 0.098 l -0.234,0.136 v 0.099 l -0.234,0.135 v 0.099 l -0.234,0.135 v 0.099 l -0.234,0.135 v 0.099 l -0.234,0.135 v 0.099 l -0.234,0.135 v 0.099 l -0.234,0.135 v 0.099 l -0.234,0.135 v 0.099 l -0.234,0.135 v 0.099 l -0.234,0.135 v 0.099 l -0.234,0.135 v 0.099 l -0.234,0.135 v 0.099 l -0.234,0.135 v 0.099 l -0.234,0.135 v 0.099 l -0.234,0.135 v 0.099 l -0.234,0.135 v 0.099 l -0.234,0.135 v 0.099 l -0.234,0.135 v 0.099 l -0.234,0.135 v 0.099 l -0.234,0.135 v 0.099 l -0.234,0.135 v 0.099 l -0.234,0.135 v 0.099 l -0.234,0.135 v 0.099 l -0.234,0.135 v 0.099 l -0.234,0.135 v 0.099 l -0.234,0.135 v 0.099 l -0.234,0.135 v 0.099 l -0.234,0.135 v 0.099 l -0.235,0.136 v 0.098 l -0.234,0.135 v 0.099 l -0.233,0.135 v 0.099 l -0.235,0.136 v 0.099 l -0.234,0.135 v 0.098 l -0.234,0.136 v 0.098 l -0.234,0.136 v 0.099 l -0.234,0.135 v 0.099 l -0.234,0.135 v 0.099 l -0.234,0.135 v 0.099 l -0.234,0.135 v 0.099 l -0.234,0.135 v 0.099 l -0.234,0.135 v 0.099 l -0.234,0.135 v 0.099 l -0.234,0.135 v 0.099 l -0.234,0.135 v 0.099 l -0.234,0.135 v 0.099 l -0.234,0.135 v 0.099 l -0.234,0.135 v 0.099 l -0.234,0.135 v 0.099 l -0.234,0.135 v 0.099 l -0.234,0.135 v 0.099 l -0.234,0.135 v 0.099 l -0.234,0.135 v 0.099 l -0.234,0.135 v 0.099 l -0.234,0.135 v 0.099 l -0.234,0.135 v 0.099 l -0.234,0.135 v 0.099 l -0.234,0.135 v 0.099 l -0.234,0.135 v 0.099 l -0.234,0.135 v 0.099 l -0.234,0.135 v 0.099 l -0.234,0.135 v 0.099 l -0.234,0.135 v 0.099 l -0.234,0.135 v 0.099 l -0.235,0.136 v 0.098 l -0.233,0.135 v 0.099 l -0.234,0.135 v 0.099 l -0.235,0.136 v 0.098 l -0.234,0.136 v 0.098 l -0.234,0.136 v 0.098 l -0.234,0.136 v 0.099 l -0.234,0.135 v 0.099 l -0.234,0.135 v 0.099 l -0.234,0.135 v 0.099 l -0.234,0.135 v 0.099 l -0.234,0.135 v 0.099 l -0.234,0.135 v 0.099 l -0.234,0.135 v 0.099 l -0.234,0.135 v 0.099 l -0.234,0.135 v 0.099 l -0.234,0.135 v 0.099 l -0.234,0.135 v 0.099 l -0.234,0.135 v 0.099 l -0.234,0.135 v 0.099 l -0.234,0.135 v 0.099 l -0.234,0.135 v 0.099 l -0.234,0.135 v 0.099 l -0.234,0.135 v 0.099 l -0.234,0.135 v 0.099 l -0.234,0.135 v 0.099 l -0.234,0.135 v 0.099 l -0.234,0.135 v 0.099 l -0.234,0.135 v 0.099 l -0.234,0.135 v 0.099 l -0.234,0.135 v 0.099 l -0.234,0.135 v 0.099 l -0.234,0.135 v 0.099 l -0.234,0.135 v 0.099 l -0.234,0.135 v 0.099 l -0.234,0.135 v 0.099 l -0.234,0.135 v 0.099 l -0.234,0.135 v 0.099 l -0.235,0.136 v 0.098 l -0.234,0.136 v 0.098 l -0.234,0.136 v 0.098 l -0.234,0.136 v 0.099 l -0.234,0.135 v 0.099 l -0.234,0.135 v 0.099 l -0.234,0.135 v 0.099 l -0.234,0.135 v 0.099 l -0.234,0.135 v 0.099 l -0.234,0.135 v 0.099 l -0.234,0.135 v 0.099 l -0.234,0.135 v 0.099 l -0.234,0.135 v 0.099 l -0.234,0.135 v 0.099 l -0.234,0.135 v 0.099 l -0.234,0.135 v 0.099 l -0.234,0.135 v 0.099 l -0.234,0.135 v 0.099 l -0.234,0.135 v 0.099 l -0.234,0.135 v 0.099 l -0.234,0.135 v 0.099 l -0.234,0.135 v 0.099 l -0.234,0.135 v 0.099 l -0.234,0.135 v 0.099 l -0.234,0.135 v 0.099 l -0.234,0.135 v 0.099 l -0.234,0.135 v 0.099 l -0.234,0.135 v 0.099 l -0.234,0.135 v 0.099 l -0.234,0.135 v 0.099 l -0.234,0.135 v 0.099 l -0.234,0.135 v 0.099 l -0.234,0.135 v 0.099 l -0.234,0.135 v 0.099 l -0.234,0.135 v 0.099 l -0.235,0.136 v 0.098 l -0.234,0.136 v 0.098 l -0.234,0.135 v 0.099 l -0.234,0.136 v 0.099 l -0.234,0.135 v 0.099 l -0.234,0.135 v 0.098 l -0.234,0.136 v 0.099 l -0.234,0.135 v 0.099 l -0.234,0.135 v 0.099 l -0.234,0.135 v 0.099 l -0.234,0.135 v 0.099 l -0.234,0.135 v 0.099 l -0.234,0.135 v 0.099 l -0.234,0.135 v 0.099 l -0.234,0.135 v 0.099 l -0.234,0.135 v 0.099 l -0.234,0.135 v 0.099 l -0.234,0.135 v 0.099 l -0.234,0.135 v 0.099 l -0.234,0.135 v 0.099 l -0.234,0.135 v 0.099 l -0.234,0.135 v 0.099 l -0.234,0.135 v 0.099 l -0.234,0.135 v 0.099 l -0.234,0.135 v 0.099 l -0.234,0.135 v 0.099 l -0.234,0.135 v 0.099 l -0.234,0.135 v 0.099 l -0.234,0.135 v 0.099 l -0.234,0.135 v 0.099 l -0.234,0.135 v 0.099 l -0.234,0.135 v 0.099 l -0.234,0.135 v 0.099 l -0.234,0.135 v 0.099 l -0.234,0.135 v 0.099 l -0.235,0.136 v 0.098 l -0.234,0.135 v 0.099 l -0.234,0.135 v 0.099 l -0.234,0.136 v 0.099 l -0.234,0.135 v 0.098 l -0.234,0.136 v 0.098 l -0.234,0.136 v 0.099 l -0.234,0.135 v 0.099 l -0.234,0.135 v 0.099 l -0.234,0.135 v 0.099 l -0.234,0.135 v 0.099 l -0.234,0.135 v 0.099 l -0.234,0.135 v 0.099 l -0.234,0.135 v 0.099 l -0.234,0.135 v 0.099 l -0.234,0.135 v 0.099 l -0.234,0.135 v 0.099 l -0.234,0.135 v 0.099 l -0.234,0.135 v 0.099 l -0.234,0.135 v 0.099 l -0.234,0.135 v 0.099 l -0.234,0.135 v 0.099 l -0.234,0.135 v 0.099 l -0.234,0.135 v 0.099 l -0.234,0.135 v 0.099 l -0.234,0.135 v 0.099 l -0.234,0.135 v 0.099 l -0.234,0.135 v 0.099 l -0.234,0.135 v 0.099 l -0.234,0.135 v 0.099 l -0.234,0.135 v 0.099 l -0.234,0.135 v 0.099 l -0.234,0.135 v 0.099 l -0.234,0.135 v 0.099 l -0.234,0.135 v 0.099 l -0.235,0.135 v 0.099 l -0.234,0.135 v 0.099 l -0.233,0.135 v 0.099 l -0.235,0.136 v 0.098 l -0.234,0.136 v 0.098 l -0.234,0.136 v 0.098 l -0.234,0.136 v 0.099 l -0.234,0.135 v 0.099 l -0.234,0.135 v 0.099 l -0.234,0.135 v 0.099 l -0.234,0.135 v 0.099 l -0.234,0.135 v 0.099 l -0.234,0.135 v 0.099 l -0.234,0.135 v 0.099 l -0.234,0.135 v 0.099 l -0.234,0.135 v 0.099 l -0.234,0.135 v 0.099 l -0.234,0.135 v 0.099 l -0.234,0.135 v 0.099 l -0.234,0.135 v 0.099 l -0.234,0.135 v 0.099 l -0.234,0.135 v 0.099 l -0.234,0.135 v 0.099 l -0.234,0.135 v 0.099 l -0.234,0.135 v 0.099 l -0.234,0.135 v 0.099 l -0.234,0.135 v 0.099 l -0.234,0.135 v 0.099 l -0.234,0.135 v 0.099 l -0.234,0.135 v 0.099 l -0.234,0.135 v 0.099 l -0.234,0.135 v 0.099 l -0.234,0.135 v 0.099 l -0.234,0.135 v 0.099 l -0.235,0.135 v 0.099 l -0.234,0.135 v 0.099 l -0.233,0.135 v 0.099 l -0.235,0.136 v 0.098 l -0.234,0.136 v 0.098 l -0.234,0.136 v 0.098 l -0.234,0.136 v 0.099 l -0.234,0.135 v 0.099 l -0.234,0.135 v 0.099 l -0.234,0.135 v 0.099 l -0.234,0.135 v 0.099 l -0.234,0.135 v 0.099 l -0.234,0.135 v 0.099 l -0.234,0.135 v 0.099 l -0.234,0.135 v 0.099 l -0.234,0.135 v 0.099 l -0.234,0.135 v 0.099 l -0.234,0.135 v 0.099 l -0.234,0.135 v 0.099 l -0.234,0.135 v 0.099 l -0.234,0.135 v 0.099 l -0.234,0.135 v 0.099 l -0.234,0.135 v 0.099 l -0.234,0.135 v 0.099 l -0.234,0.135 v 0.099 l -0.234,0.135 v 0.099 l -0.234,0.135 v 0.099 l -0.234,0.135 v 0.099 l -0.234,0.135 v 0.099 l -0.234,0.135 v 0.099 l -0.234,0.135 v 0.099 l -0.234,0.135 v 0.099 l -0.234,0.135 v 0.099 l -0.234,0.135 v 0.099 l -0.234,0.135 v 0.099 l -0.235,0.135 v 0.099 l -0.233,0.135 v 0.099 l -0.234,0.135 v 0.099 l -0.235,0.136 v 0.098 l -0.234,0.136 v 0.098 l -0.234,0.136 v 0.098 l -0.234,0.136 v 0.099 l -0.234,0.135 v 0.099 l -0.234,0.135 v 0.098 l -0.234,0.136 v 0.099 l -0.234,0.135 v 0.099 l -0.234,0.135 v 0.099 l -0.234,0.135 v 0.099 l -0.234,0.135 v 0.099 l -0.234,0.135 v 0.099 l -0.234,0.135 v 0.099 l -0.234,0.135 v 0.099 l -0.234,0.135 v 0.099 l -0.234,0.135 v 0.099 l -0.234,0.135 v 0.099 l -0.234,0.135 v 0.099 l -0.234,0.135 v 0.099 l -0.234,0.135 v 0.099 l -0.234,0.135 v 0.099 l -0.234,0.135 v 0.099 l -0.234,0.135 v 0.099 l -0.234,0.135 v 0.099 l -0.234,0.135 v 0.099 l -0.234,0.135 v 0.099 l -0.234,0.135 v 0.099 l -0.234,0.135 v 0.099 l -0.234,0.135 v 0.099 l -0.234,0.135 v 0.099 l -0.234,0.135 v 0.099 l -0.234,0.135 v 0.099 l -0.234,0.135 v 0.099 l -0.234,0.135 v 0.099 l -0.234,0.135 v 0.099 l -0.235,0.136 v 0.098 l -0.234,0.136 v 0.098 l -0.233,0.135 v 0.099 l -0.235,0.136 v 0.099 l -0.234,0.135 v 0.098 l -0.234,0.136 v 0.098 l -0.234,0.136 v 0.099 l -0.234,0.135 v 0.099 l -0.234,0.135 v 0.099 l -0.234,0.135 v 0.099 l -0.234,0.135 v 0.099 l -0.234,0.135 v 0.099 l -0.234,0.135 v 0.099 l -0.234,0.135 v 0.099 l -0.234,0.135 v 0.099 l -0.234,0.135 v 0.099 l -0.234,0.135 v 0.099 l -0.234,0.135 v 0.099 l -0.234,0.135 v 0.099 l -0.234,0.135 v 0.099 l -0.234,0.135 v 0.099 l -0.234,0.135 v 0.099 l -0.234,0.135 v 0.099 l -0.234,0.135 v 0.099 l -0.234,0.135 v 0.099 l -0.234,0.135 v 0.099 l -0.234,0.135 v 0.099 l -0.234,0.135 v 0.099 l -0.234,0.135 v 0.099 l -0.234,0.135 v 0.099 l -0.234,0.135 v 0.099 l -0.234,0.135 v 0.099 l -0.234,0.135 v 0.099 l -0.234,0.135 v 0.099 l -0.234,0.135 v 0.099 l -0.235,0.136 v 0.098 l -0.233,0.135 v 0.099 l -0.234,0.135 v 0.099 l -0.235,0.136 v 0.098 l -0.234,0.136 v 0.098 l -0.234,0.136 v 0.098 l -0.234,0.136 v 0.099 l -0.234,0.135 v 0.099 l -0.234,0.135 v 0.099 l -0.234,0.135 v 0.099 l -0.234,0.135 v 0.099 l -0.234,0.135 v 0.099 l -0.234,0.135 v 0.099 l -0.234,0.135 v 0.099 l -0.234,0.135 v 0.099 l -0.234,0.135 v 0.099 l -0.234,0.135 v 0.099 l -0.234,0.135 v 0.099 l -0.234,0.135 v 0.099 l -0.234,0.135 v 0.099 l -0.234,0.135 v 0.099 l -0.234,0.135 v 0.099 l -0.234,0.135 v 0.099 l -0.234,0.135 v 0.099 l -0.234,0.135 v 0.099 l -0.234,0.135 v 0.099 l -0.234,0.135 v 0.099 l -0.234,0.135 v 0.099 l -0.234,0.135 v 0.099 l -0.234,0.135 v 0.099 l -0.234,0.135 v 0.099 l -0.234,0.135 v 0.099 l -0.234,0.135 v 0.099 l -0.234,0.135 v 0.099 l -0.234,0.135 v 0.099 l -0.234,0.135 v 0.099 l -0.234,0.135 v 0.099 l -0.234,0.135 v 0.099 l -0.235,0.136 v 0.098 l -0.234,0.136 v 0.098 l -0.234,0.136 v 0.098 l -0.234,0.136 v 0.099 l -0.234,0.135 v 0.099 l -0.234,0.135 v 0.099 l -0.234,0.135 v 0.099 l -0.234,0.135 v 0.099 l -0.234,0.135 v 0.099 l -0.234,0.135 v 0.099 l -0.234,0.135 v 0.099 l -0.234,0.135 v 0.099 l -0.234,0.135 v 0.099 l -0.234,0.135 v 0.099 l -0.234,0.135 v 0.099 l -0.234,0.135 v 0.099 l -0.234,0.135 v 0.099 l -0.234,0.135 v 0.099 l -0.234,0.135 v 0.099 l -0.234,0.135 v 0.099 l -0.234,0.135 v 0.099 l -0.234,0.135 v 0.099 l -0.234,0.135 v 0.099 l -0.234,0.135 v 0.099 l -0.234,0.135 v 0.099 l -0.234,0.135 v 0.099 l -0.234,0.135 v 0.099 l -0.234,0.135 v 0.099 l -0.234,0.135 v 0.099 l -0.234,0.135 v 0.099 l -0.234,0.135 v 0.099 l -0.234,0.135 v 0.099 l -0.234,0.135 v 0.099 l -0.234,0.135 v 0.099 l -0.235,0.136 v 0.098 l -0.234,0.135 v 0.099 l -0.234,0.136 v 0.098 l -0.234,0.136 v 0.099 l -0.234,0.135 v 0.099 l -0.234,0.135 v 0.099 l -0.234,0.135 v 0.099 l -0.234,0.135 v 0.099 l -0.234,0.135 v 0.099 l -0.234,0.135 v 0.099 l -0.234,0.135 v 0.099 l -0.234,0.135 v 0.099 l -0.234,0.135 v 0.099 l -0.234,0.135 v 0.099 l -0.234,0.135 v 0.099 l -0.234,0.135 v 0.099 l -0.234,0.135 v 0.099 l -0.234,0.135 v 0.099 l -0.234,0.135 v 0.099 l -0.234,0.135 v 0.099 l -0.234,0.135 v 0.099 l -0.234,0.135 v 0.099 l -0.234,0.135 v 0.099 l -0.234,0.135 v 0.099 l -0.234,0.135 v 0.099 l -0.234,0.135 v 0.099 l -0.234,0.135 v 0.099 l -0.234,0.135 v 0.099 l -0.234,0.135 v 0.099 l -0.234,0.135 v 0.099 l -0.234,0.135 v 0.099 l -0.234,0.135 v 0.099 l -0.234,0.135 v 0.099 l -0.234,0.135 v 0.099 l -0.234,0.135 v 0.099 l -0.235,0.136 v 0.098 l -0.234,0.136 v 0.098 l -0.234,0.136 v 0.098 l -0.234,0.136 v 0.099 l -0.234,0.135 v 0.099 l -0.234,0.135 v 0.098 l -0.234,0.136 v 0.099 l -0.234,0.135 v 0.099 l -0.234,0.135 v 0.099 l -0.234,0.135 v 0.099 l -0.234,0.135 v 0.099 l -0.234,0.135 v 0.099 l -0.234,0.135 v 0.099 l -0.234,0.135 v 0.099 l -0.234,0.135 v 0.099 l -0.234,0.135 v 0.099 l -0.234,0.135 v 0.099 l -0.234,0.135 v 0.099 l -0.234,0.135 v 0.099 l -0.234,0.135 v 0.099 l -0.234,0.135 v 0.099 l -0.234,0.135 v 0.099 l -0.234,0.135 V 225 l -0.234,0.135 v 0.099 l -0.234,0.135 v 0.099 l -0.234,0.135 v 0.099 l -0.234,0.135 v 0.099 l -0.234,0.135 v 0.099 l -0.234,0.135 v 0.099 l -0.234,0.135 v 0.099 l -0.234,0.135 v 0.099 l -0.234,0.135 v 0.099 l -0.234,0.135 v 0.099 l -0.234,0.135 v 0.099 l -0.234,0.135 v 0.099 l -0.235,0.136 v 0.098 l -0.234,0.136 v 0.098 l -0.233,0.135 v 0.099 l -0.235,0.136 v 0.099 l -0.234,0.135 v 0.098 l -0.234,0.136 v 0.098 l -0.234,0.136 v 0.099 l -0.234,0.135 v 0.099 l -0.234,0.135 v 0.099 l -0.234,0.135 v 0.099 l -0.234,0.135 v 0.099 l -0.234,0.135 v 0.099 l -0.234,0.135 v 0.099 l -0.234,0.135 v 0.099 l -0.234,0.135 v 0.099 l -0.234,0.135 v 0.099 l -0.234,0.135 v 0.099 l -0.234,0.135 v 0.099 l -0.234,0.135 v 0.099 l -0.234,0.135 v 0.099 l -0.234,0.135 v 0.099 l -0.234,0.135 v 0.099 l -0.234,0.135 v 0.099 l -0.234,0.135 v 0.099 l -0.234,0.135 v 0.099 l -0.234,0.135 v 0.099 l -0.234,0.135 v 0.099 l -53.718,31.014 -52.421,-63.692 -0.025,0.03 -0.029,-0.016 -0.205,0.25 -0.029,-0.016 -0.205,0.25 -0.029,-0.016 -0.205,0.25 -0.029,-0.016 -0.205,0.25 -0.029,-0.016 -0.206,0.25 -0.028,-0.016 -0.205,0.25 -0.029,-0.016 -0.206,0.25 -0.028,-0.016 -0.206,0.25 -0.028,-0.016 -0.206,0.25 -0.028,-0.016 -0.206,0.251 -0.028,-0.017 -0.206,0.25 -0.028,-0.016 -0.206,0.25 -0.028,-0.016 -0.206,0.251 -0.029,-0.017 -0.205,0.251 -0.029,-0.017 -0.205,0.251 -0.029,-0.017 -0.205,0.251 -0.029,-0.017 -0.205,0.251 -0.029,-0.017 -0.205,0.251 -0.029,-0.017 -0.205,0.251 -0.029,-0.017 -0.205,0.251 -0.029,-0.017 -0.205,0.251 -0.029,-0.017 -0.205,0.251 -0.029,-0.017 -0.205,0.251 -0.029,-0.017 -0.205,0.251 -0.029,-0.017 -0.205,0.251 -0.029,-0.017 -0.205,0.251 -0.029,-0.017 -0.205,0.251 -0.029,-0.017 -0.205,0.251 -0.029,-0.017 -0.205,0.251 -0.029,-0.017 -0.205,0.251 -0.029,-0.017 -0.205,0.251 -0.029,-0.016 -0.205,0.25 -0.029,-0.016 -0.205,0.25 -0.029,-0.017 -0.205,0.251 -0.029,-0.016 -0.205,0.25 -0.029,-0.016 -0.205,0.25 -0.029,-0.016 -0.205,0.25 -0.029,-0.016 -0.205,0.25 -0.029,-0.016 -0.206,0.25 -0.028,-0.016 -0.206,0.25 -0.028,-0.016 -0.205,0.25 -0.029,-0.016 -0.206,0.25 -0.028,-0.016 -0.206,0.25 -0.028,-0.016 -0.206,0.25 -0.028,-0.016 -0.206,0.25 -0.028,-0.016 -0.206,0.25 -0.028,-0.016 -0.206,0.25 -0.028,-0.016 -0.206,0.251 -0.029,-0.017 -0.205,0.251 -0.029,-0.017 -0.205,0.251 -0.028,-0.017 -0.206,0.251 -0.029,-0.017 -0.205,0.251 -0.029,-0.017 -0.205,0.251 -0.029,-0.017 -0.205,0.251 -0.029,-0.017 -0.205,0.251 -0.029,-0.017 -0.205,0.251 -0.029,-0.017 -0.205,0.251 -0.029,-0.017 -0.205,0.251 -0.029,-0.017 -0.205,0.251 -0.029,-0.017 -0.205,0.251 -0.029,-0.017 -0.205,0.251 -0.029,-0.017 -0.205,0.251 -0.029,-0.017 -0.205,0.251 -0.029,-0.017 -0.205,0.251 -0.029,-0.017 -0.205,0.251 -0.029,-0.017 -0.205,0.251 -0.029,-0.016 -0.205,0.25 -0.029,-0.017 -0.205,0.251 -0.029,-0.016 -0.205,0.25 -0.029,-0.016 -0.205,0.25 -0.029,-0.016 -0.205,0.25 -0.029,-0.016 -0.205,0.25 -0.029,-0.016 -0.205,0.25 -0.029,-0.016 -0.205,0.25 -0.029,-0.016 -0.206,0.25 -0.028,-0.016 -0.205,0.25 -0.029,-0.016 -0.206,0.25 -0.028,-0.016 -0.206,0.25 -0.028,-0.016 -0.206,0.25 -0.028,-0.016 -0.206,0.25 -0.028,-0.016 -0.206,0.25 -0.028,-0.016 -0.206,0.25 -0.028,-0.016 -0.206,0.251 -0.029,-0.017 -0.205,0.251 -0.028,-0.017 -0.206,0.251 -0.028,-0.017 -0.206,0.251 -0.029,-0.017 -0.205,0.251 -0.028,-0.017 -0.206,0.251 -0.029,-0.017 -0.205,0.251 -0.029,-0.017 -0.205,0.251 -0.029,-0.017 -0.205,0.251 -0.029,-0.017 -0.205,0.251 -0.029,-0.017 -0.205,0.251 -0.029,-0.017 -0.205,0.251 -0.029,-0.017 -0.205,0.251 -0.029,-0.017 -0.205,0.251 -0.029,-0.017 -0.205,0.251 -0.029,-0.017 -0.205,0.251 -0.029,-0.017 -0.205,0.251 -0.029,-0.017 -0.205,0.251 -0.029,-0.016 -0.205,0.25 -0.029,-0.017 -0.205,0.251 -0.029,-0.017 -0.205,0.251 -0.029,-0.016 -0.205,0.25 -0.029,-0.016 -0.205,0.25 -0.029,-0.016 -0.205,0.25 -0.029,-0.016 -0.205,0.25 -0.029,-0.016 -0.205,0.25 -0.029,-0.016 -0.205,0.25 -0.029,-0.016 -0.205,0.25 -0.029,-0.016 -0.205,0.25 -0.029,-0.016 -0.206,0.25 -0.028,-0.016 -0.206,0.25 -0.028,-0.016 -0.206,0.25 -0.028,-0.016 -0.206,0.25 -0.028,-0.016 -0.206,0.25 -0.028,-0.016 -0.206,0.251 -0.028,-0.017 -0.206,0.251 -0.028,-0.017 -0.206,0.251 -0.028,-0.017 -0.206,0.251 -0.028,-0.017 -0.206,0.251 -0.029,-0.017 -0.205,0.251 -0.028,-0.017 -0.206,0.251 -0.029,-0.017 -0.205,0.251 -0.029,-0.017 -0.205,0.251 -0.028,-0.017 -0.206,0.251 -0.029,-0.017 -0.205,0.251 -0.029,-0.017 -0.205,0.251 -0.029,-0.017 -0.205,0.251 -0.029,-0.017 -0.205,0.251 -0.029,-0.017 -0.205,0.251 -0.029,-0.017 -0.205,0.251 -0.029,-0.017 -0.205,0.251 -0.029,-0.017 -0.205,0.251 -0.029,-0.017 -0.205,0.251 -0.029,-0.017 -0.205,0.251 -0.029,-0.017 -0.205,0.251 -0.029,-0.017 -0.205,0.251 -0.029,-0.016 -0.205,0.25 -0.029,-0.016 -0.205,0.25 -0.029,-0.016 -0.205,0.25 -0.029,-0.016 -0.205,0.25 -0.029,-0.016 -0.205,0.25 -0.029,-0.016 -0.205,0.25 -0.029,-0.016 -0.205,0.25 -0.029,-0.016 -0.205,0.25 -0.029,-0.016 -0.206,0.25 -0.028,-0.016 -0.206,0.25 -0.028,-0.016 -0.205,0.25 -0.029,-0.016 -0.206,0.25 -0.028,-0.016 -0.206,0.25 -0.028,-0.016 -0.206,0.251 -0.028,-0.017 -0.206,0.251 -0.028,-0.017 -0.206,0.251 -0.028,-0.017 -0.206,0.251 -0.028,-0.017 -0.206,0.251 -0.029,-0.017 -0.205,0.251 -0.029,-0.017 -0.205,0.251 -0.029,-0.017 -0.205,0.251 -0.029,-0.017 -0.205,0.251 -0.029,-0.017 -0.205,0.251 -0.029,-0.017 -0.205,0.251 -0.029,-0.017 -0.205,0.251 -0.029,-0.017 -0.205,0.251 -0.029,-0.017 -0.205,0.251 -0.029,-0.017 -0.205,0.251 -0.029,-0.017 -0.205,0.251 -0.029,-0.017 -0.205,0.251 -0.029,-0.017 -0.205,0.251 -0.029,-0.017 -0.205,0.251 -0.029,-0.017 -0.205,0.251 -0.029,-0.017 -0.205,0.251 -0.029,-0.017 -0.205,0.251 -0.029,-0.016 -0.205,0.25 -0.029,-0.016 -0.205,0.25 -0.029,-0.016 -0.205,0.25 -0.029,-0.016 -0.205,0.25 -0.029,-0.016 -0.205,0.25 -0.029,-0.016 -0.205,0.25 -0.029,-0.016 -0.205,0.25 -0.029,-0.016 -0.205,0.25 -0.029,-0.016 -0.206,0.25 -0.028,-0.016 -0.206,0.25 -0.028,-0.016 -0.205,0.25 -0.029,-0.016 -0.206,0.25 -0.028,-0.016 -0.206,0.25 -0.028,-0.016 -0.206,0.251 -0.028,-0.017 -0.206,0.251 -0.028,-0.017 -0.206,0.25 -0.028,-0.016 -0.206,0.251 -0.029,-0.017 -0.205,0.251 -0.029,-0.017 -0.205,0.251 -0.029,-0.017 -0.205,0.251 -0.029,-0.017 -0.205,0.251 -0.029,-0.017 -0.205,0.251 -0.029,-0.017 -0.205,0.251 -0.029,-0.017 -0.205,0.251 -0.029,-0.017 -0.205,0.251 -0.029,-0.017 -0.205,0.251 -0.029,-0.017 -0.205,0.251 -0.029,-0.017 -0.205,0.251 -0.029,-0.017 -0.205,0.251 -0.029,-0.017 -0.205,0.251 -0.029,-0.017 -0.205,0.251 -0.029,-0.017 -0.205,0.251 -0.029,-0.017 -0.205,0.251 -0.029,-0.017 -0.205,0.251 -0.029,-0.017 -0.205,0.251 -0.029,-0.016 -0.205,0.25 -0.029,-0.016 -0.205,0.25 -0.029,-0.017 -0.205,0.251 -0.029,-0.016 -0.205,0.25 -0.029,-0.016 -0.205,0.25 -0.029,-0.016 -0.205,0.25 -0.029,-0.016 -0.205,0.25 -0.029,-0.016 -0.205,0.25 -0.029,-0.016 -0.206,0.25 -0.028,-0.016 -0.205,0.25 -0.029,-0.016 -0.206,0.25 -0.028,-0.016 -0.206,0.25 -0.028,-0.016 -0.206,0.25 -0.028,-0.016 -0.206,0.251 -0.028,-0.017 -0.206,0.25 -0.028,-0.016 -0.206,0.25 -0.028,-0.016 -0.206,0.251 -0.029,-0.017 -0.205,0.251 -0.029,-0.017 -0.205,0.251 -0.028,-0.017 -0.206,0.251 -0.029,-0.017 -0.205,0.251 -0.029,-0.017 -0.205,0.251 -0.029,-0.017 -0.205,0.251 -0.029,-0.017 -0.205,0.251 -0.029,-0.017 -0.205,0.251 -0.029,-0.017 -0.205,0.251 -0.029,-0.017 -0.205,0.251 -0.029,-0.017 -0.205,0.251 -0.029,-0.017 -0.205,0.251 -0.029,-0.017 -0.205,0.251 -0.029,-0.017 -0.205,0.251 -0.029,-0.017 -0.205,0.251 -0.029,-0.017 -0.205,0.251 -0.029,-0.017 -0.205,0.251 -0.029,-0.017 -0.205,0.251 -0.029,-0.016 -0.205,0.25 -0.029,-0.017 -0.205,0.251 -0.029,-0.017 -0.205,0.251 -0.029,-0.016 -0.205,0.25 -0.029,-0.016 -0.205,0.25 -0.029,-0.016 -0.205,0.25 -0.029,-0.016 -0.205,0.25 -0.029,-0.016 -0.206,0.25 -0.028,-0.016 -0.205,0.25 -0.029,-0.016 -0.205,0.25 -0.029,-0.016 -0.206,0.25 -0.028,-0.016 -0.206,0.25 -0.028,-0.016 -0.206,0.25 -0.028,-0.016 -0.206,0.25 -0.028,-0.016 -0.206,0.25 -0.028,-0.016 -0.206,0.25 -0.028,-0.016 -0.206,0.251 -0.028,-0.017 -0.206,0.251 -0.028,-0.017 -0.206,0.251 -0.028,-0.017 -0.206,0.251 -0.029,-0.017 -0.205,0.251 -0.028,-0.017 -0.206,0.251 -0.029,-0.017 -0.205,0.251 -0.029,-0.017 -0.205,0.251 -0.028,-0.017 -0.206,0.251 -0.029,-0.017 -0.205,0.251 -0.029,-0.017 -0.205,0.251 -0.029,-0.017 -0.205,0.251 -0.029,-0.017 -0.205,0.251 -53.707,-31.008 V 105.074 l 0.234,-0.135 v -0.099 l 0.234,-0.135 v -0.099 l 0.234,-0.136 v -0.098 l 0.234,-0.135 v -0.099 l 0.234,-0.136 v -0.098 l 0.234,-0.136 v -0.098 l 0.234,-0.135 v -0.1 l 0.234,-0.135 v -0.098 l 0.234,-0.136 v -0.098 l 0.234,-0.136 v -0.099 l 0.234,-0.135 v -0.099 l 0.234,-0.135 v -0.099 l 0.234,-0.135 v -0.099 l 0.234,-0.135 v -0.099 l 0.235,-0.135 v -0.099 l 0.234,-0.135 v -0.099 l 0.234,-0.135 v -0.099 l 0.234,-0.135 v -0.099 l 0.234,-0.135 v -0.099 l 0.234,-0.135 v -0.099 l 0.234,-0.135 v -0.099 l 0.234,-0.135 v -0.099 l 0.234,-0.135 v -0.099 l 0.234,-0.135 v -0.099 l 0.234,-0.135 v -0.099 l 0.234,-0.135 v -0.099 l 0.234,-0.135 v -0.099 l 0.234,-0.135 v -0.099 l 0.234,-0.135 v -0.099 l 0.234,-0.135 v -0.099 l 0.234,-0.135 v -0.099 l 0.234,-0.135 v -0.099 l 0.234,-0.135 v -0.099 l 0.234,-0.135 v -0.099 l 0.234,-0.135 v -0.099 l 0.234,-0.135 v -0.099 l 0.234,-0.135 v -0.099 l 0.234,-0.136 v -0.098 l 0.234,-0.135 v -0.099 l 0.234,-0.135 v -0.099 l 0.234,-0.136 v -0.098 l 0.234,-0.135 v -0.099 l 0.234,-0.136 v -0.098 l 0.234,-0.136 v -0.098 l 0.234,-0.136 v -0.099 l 0.234,-0.135 v -0.099 l 0.234,-0.135 v -0.099 l 0.234,-0.135 V 93.84 l 0.234,-0.135 v -0.099 l 0.235,-0.135 v -0.099 l 0.234,-0.135 v -0.099 l 0.234,-0.135 v -0.099 l 0.234,-0.135 V 92.67 l 0.234,-0.135 v -0.099 l 0.234,-0.135 v -0.099 l 0.234,-0.135 v -0.099 l 0.234,-0.135 v -0.099 l 0.234,-0.135 V 91.5 l 0.234,-0.135 v -0.099 l 0.234,-0.135 v -0.099 l 0.234,-0.135 v -0.099 l 0.234,-0.135 v -0.099 l 0.234,-0.135 V 90.33 l 0.234,-0.135 v -0.099 l 0.234,-0.135 v -0.099 l 0.234,-0.135 v -0.099 l 0.234,-0.135 v -0.099 l 0.234,-0.135 V 89.16 l 0.234,-0.135 v -0.099 l 0.234,-0.135 v -0.099 l 0.234,-0.135 v -0.099 l 0.234,-0.135 v -0.099 l 0.234,-0.135 V 87.99 l 0.234,-0.135 v -0.099 l 0.234,-0.135 v -0.099 l 0.234,-0.136 v -0.098 l 0.234,-0.135 v -0.099 l 0.234,-0.136 V 86.82 l 0.234,-0.136 v -0.098 l 0.234,-0.135 v -0.1 l 0.234,-0.135 v -0.099 l 0.234,-0.135 v -0.099 l 0.234,-0.135 v -0.099 l 0.234,-0.135 v -0.099 l 0.235,-0.135 v -0.099 l 0.234,-0.135 v -0.099 l 0.233,-0.135 v -0.099 l 0.235,-0.135 v -0.099 l 0.234,-0.135 v -0.099 l 0.234,-0.135 v -0.099 l 0.234,-0.135 v -0.099 l 0.234,-0.135 v -0.099 l 0.234,-0.135 v -0.099 l 0.234,-0.135 v -0.099 l 0.234,-0.135 v -0.099 l 0.234,-0.135 v -0.099 l 0.234,-0.135 v -0.099 l 0.234,-0.135 v -0.099 l 0.234,-0.135 v -0.099 l 0.234,-0.135 v -0.099 l 0.234,-0.135 v -0.099 l 0.234,-0.135 v -0.099 l 0.234,-0.135 v -0.099 l 0.234,-0.135 v -0.099 l 0.234,-0.135 v -0.099 l 0.234,-0.135 v -0.099 l 0.234,-0.135 v -0.099 l 0.234,-0.135 v -0.099 l 0.234,-0.135 v -0.099 l 0.234,-0.135 v -0.099 l 0.234,-0.136 v -0.098 l 0.234,-0.135 v -0.099 l 0.234,-0.136 v -0.098 l 0.234,-0.136 v -0.098 l 0.234,-0.135 v -0.1 l 0.234,-0.135 v -0.099 l 0.234,-0.135 v -0.098 l 0.234,-0.136 v -0.099 l 0.234,-0.135 v -0.099 l 0.235,-0.135 V 76.99 l 0.233,-0.135 v -0.099 l 0.235,-0.135 v -0.099 l 0.234,-0.135 v -0.099 l 0.234,-0.135 v -0.099 l 0.234,-0.135 V 75.82 l 0.234,-0.135 v -0.099 l 0.234,-0.135 v -0.099 l 0.234,-0.135 v -0.099 l 0.234,-0.135 v -0.099 l 0.234,-0.135 V 74.65 l 0.234,-0.135 v -0.099 l 0.234,-0.135 v -0.099 l 0.234,-0.135 v -0.099 l 0.234,-0.135 v -0.099 l 0.234,-0.135 V 73.48 l 0.234,-0.135 v -0.099 l 0.234,-0.135 v -0.099 l 0.234,-0.135 v -0.099 l 0.234,-0.135 v -0.099 l 0.234,-0.135 V 72.31 l 0.234,-0.135 v -0.099 l 0.234,-0.135 v -0.099 l 0.234,-0.135 v -0.099 l 0.234,-0.135 v -0.099 l 0.234,-0.135 V 71.14 l 0.234,-0.136 v -0.098 l 0.234,-0.135 v -0.099 l 0.234,-0.136 v -0.098 l 0.234,-0.136 v -0.098 l 0.234,-0.135 v -0.1 l 0.234,-0.135 v -0.098 l 0.234,-0.136 v -0.099 l 0.234,-0.135 v -0.099 l 0.235,-0.135 v -0.099 l 0.233,-0.135 v -0.099 l 0.234,-0.135 v -0.099 l 0.235,-0.135 v -0.099 l 0.234,-0.135 v -0.099 l 0.234,-0.135 v -0.099 l 0.234,-0.135 v -0.099 l 0.234,-0.135 v -0.099 l 0.234,-0.135 v -0.099 l 0.234,-0.135 v -0.099 l 0.234,-0.135 v -0.099 l 0.234,-0.135 v -0.099 l 0.234,-0.135 v -0.099 l 0.234,-0.135 v -0.099 l 0.234,-0.135 v -0.099 l 0.234,-0.135 v -0.099 l 0.234,-0.135 v -0.099 l 0.234,-0.135 v -0.099 l 0.234,-0.135 v -0.099 l 0.234,-0.135 v -0.099 l 0.234,-0.135 v -0.099 l 0.234,-0.135 v -0.099 l 0.234,-0.135 v -0.099 l 0.234,-0.135 v -0.099 l 0.234,-0.135 v -0.099 l 0.234,-0.135 v -0.099 l 0.234,-0.135 v -0.099 l 0.234,-0.136 v -0.098 l 0.234,-0.136 v -0.098 l 0.234,-0.136 v -0.098 l 0.234,-0.135 v -0.1 l 0.234,-0.135 v -0.098 l 0.234,-0.136 v -0.098 l 0.234,-0.136 V 61.31 l 0.234,-0.135 v -0.099 l 0.234,-0.135 v -0.099 l 0.234,-0.135 v -0.099 l 0.234,-0.135 v -0.099 l 0.235,-0.135 V 60.14 l 0.234,-0.135 v -0.099 l 0.233,-0.135 v -0.099 l 0.235,-0.135 v -0.099 l 0.234,-0.135 v -0.099 l 0.234,-0.135 V 58.97 l 0.234,-0.135 v -0.099 l 0.234,-0.135 v -0.099 l 0.234,-0.135 v -0.099 l 0.234,-0.135 v -0.099 l 0.234,-0.135 V 57.8 l 0.234,-0.135 v -0.099 l 0.234,-0.135 v -0.099 l 0.234,-0.135 v -0.099 l 0.234,-0.135 v -0.099 l 0.234,-0.135 V 56.63 l 0.234,-0.135 v -0.099 l 0.234,-0.135 v -0.099 l 0.234,-0.135 v -0.099 l 0.234,-0.135 v -0.099 l 0.234,-0.135 V 55.46 l 0.234,-0.135 v -0.099 l 0.234,-0.135 v -0.099 l 0.234,-0.136 v -0.098 l 0.234,-0.135 v -0.099 l 0.234,-0.135 V 54.29 l 0.234,-0.136 v -0.098 l 0.234,-0.135 v -0.099 l 0.234,-0.136 v -0.098 l 0.234,-0.136 v -0.098 l 0.234,-0.136 v -0.099 l 0.234,-0.135 v -0.099 l 0.234,-0.135 v -0.099 l 0.234,-0.135 v -0.099 l 0.234,-0.135 v -0.099 l 0.235,-0.135 v -0.099 l 0.234,-0.135 v -0.099 l 0.233,-0.135 v -0.099 l 0.235,-0.135 v -0.099 l 0.234,-0.135 v -0.099 l 0.234,-0.135 v -0.099 l 0.234,-0.135 v -0.099 l 0.234,-0.135 v -0.099 l 0.234,-0.135 v -0.099 l 0.234,-0.135 v -0.099 l 0.234,-0.135 v -0.099 l 0.234,-0.135 v -0.099 l 0.234,-0.135 v -0.099 l 0.234,-0.135 v -0.099 l 0.234,-0.135 v -0.099 l 0.234,-0.135 v -0.099 l 0.234,-0.135 v -0.099 l 0.234,-0.135 v -0.099 l 0.234,-0.135 v -0.099 l 0.234,-0.135 v -0.099 l 0.234,-0.135 v -0.099 l 0.234,-0.135 v -0.099 l 0.234,-0.135 v -0.099 l 0.234,-0.136 v -0.098 l 0.234,-0.135 v -0.099 l 0.234,-0.135 v -0.099 l 0.234,-0.136 v -0.098 l 0.234,-0.135 v -0.099 l 0.234,-0.136 v -0.098 l 0.234,-0.136 v -0.098 l 0.234,-0.135 v -0.1 l 0.234,-0.135 v -0.099 l 0.234,-0.135 V 44.46 l 0.234,-0.135 v -0.099 l 0.234,-0.135 v -0.099 l 0.234,-0.135 v -0.099 l 0.235,-0.135 v -0.099 l 0.233,-0.135 V 43.29 l 0.235,-0.135 v -0.099 l 0.234,-0.135 v -0.099 l 0.234,-0.135 v -0.099 l 0.234,-0.135 v -0.099 l 0.234,-0.135 V 42.12 l 0.234,-0.135 v -0.099 l 0.234,-0.135 v -0.099 l 0.234,-0.135 v -0.099 l 0.234,-0.135 v -0.099 l 0.234,-0.135 V 40.95 l 0.234,-0.135 v -0.099 l 0.234,-0.135 v -0.099 l 0.234,-0.135 v -0.099 l 0.234,-0.135 v -0.099 l 0.234,-0.135 V 39.78 l 0.234,-0.135 v -0.099 l 0.234,-0.135 v -0.099 l 0.234,-0.135 v -0.099 l 0.234,-0.135 v -0.099 l 0.234,-0.135 V 38.61 l 0.234,-0.135 v -0.099 l 0.234,-0.135 v -0.099 l 0.234,-0.135 v -0.099 l 0.234,-0.136 v -0.098 l 0.234,-0.135 V 37.44 l 0.234,-0.136 v -0.098 l 0.234,-0.136 v -0.098 l 0.234,-0.135 v -0.1 l 0.234,-0.135 v -0.099 l 0.234,-0.135 V 36.27 l 0.234,-0.136 v -0.099 l 0.234,-0.135 v -0.099 l 0.234,-0.135 v -0.099 l 0.234,-0.135 v -0.099 l 0.234,-0.135 v -0.099 l 0.235,-0.135 v -0.099 l 0.234,-0.135 v -0.099 l 0.234,-0.135 v -0.099 l 0.234,-0.135 v -0.099 l 0.234,-0.135 v -0.099 l 0.234,-0.135 v -0.099 l 0.234,-0.135 v -0.099 l 0.234,-0.135 v -0.099 l 0.234,-0.135 v -0.099 l 0.234,-0.135 v -0.099 l 0.234,-0.135 v -0.099 l 0.234,-0.135 v -0.099 l 0.234,-0.135 v -0.099 l 0.234,-0.135 v -0.099 l 0.234,-0.135 v -0.099 l 0.234,-0.135 v -0.099 l 0.234,-0.135 v -0.099 l 0.234,-0.135 v -0.099 l 0.234,-0.135 v -0.099 l 0.234,-0.135 v -0.099 l 0.234,-0.135 v -0.099 l 0.234,-0.135 v -0.099 l 0.234,-0.135 v -0.099 l 0.234,-0.136 v -0.098 l 0.234,-0.135 v -0.099 l 0.234,-0.135 v -0.099 l 0.234,-0.136 v -0.098 l 0.234,-0.135 v -0.1 l 0.234,-0.135 v -0.098 l 0.234,-0.136 v -0.098 l 0.234,-0.136 v -0.099 l 0.234,-0.135 V 27.61 l 0.234,-0.135 v -0.099 l 0.234,-0.135 v -0.099 l 0.235,-0.135 v -0.099 l 0.234,-0.135 v -0.099 l 0.234,-0.135 V 26.44 l 0.234,-0.135 v -0.099 l 0.234,-0.135 v -0.099 l 0.234,-0.135 v -0.099 l 0.234,-0.135 v -0.099 l 0.234,-0.135 V 25.27 l 0.234,-0.135 v -0.099 l 0.234,-0.135 v -0.099 l 0.234,-0.135 v -0.099 l 0.234,-0.135 v -0.099 l 0.234,-0.135 V 24.1 l 0.234,-0.135 v -0.099 l 0.234,-0.135 v -0.099 l 0.234,-0.135 v -0.099 l 0.234,-0.135 v -0.099 l 0.234,-0.135 V 22.93 l 0.234,-0.135 v -0.099 l 0.234,-0.135 v -0.099 l 0.234,-0.135 v -0.099 l 0.234,-0.135 v -0.099 l 0.234,-0.135 V 21.76 l 0.234,-0.135 v -0.099 l 0.234,-0.136 v -0.098 l 0.234,-0.135 v -0.099 l 0.234,-0.135 v -0.099 l 0.234,-0.136 V 20.59 l 0.234,-0.135 v -0.099 l 0.234,-0.136 v -0.098 l 0.234,-0.136 v -0.099 l 0.234,-0.135 v -0.099 l 0.234,-0.135 v -0.099 l 0.234,-0.135 v -0.099 l 0.234,-0.135 v -0.099 l 0.235,-0.135 v -0.099 l 0.234,-0.135 v -0.099 l 0.234,-0.135 v -0.099 l 0.234,-0.135 v -0.099 l 0.234,-0.135 v -0.099 l 0.234,-0.135 v -0.099 l 0.234,-0.135 v -0.099 l 0.234,-0.135 v -0.099 l 0.234,-0.135 v -0.099 l 0.234,-0.135 v -0.099 l 0.234,-0.135 v -0.099 l 0.234,-0.135 v -0.099 l 0.234,-0.135 v -0.099 l 0.234,-0.135 v -0.099 l 0.234,-0.135 v -0.099 l 0.234,-0.135 v -0.099 l 0.234,-0.135 v -0.099 l 0.234,-0.135 v -0.099 l 0.234,-0.135 v -0.099 l 0.234,-0.135 v -0.099 l 0.234,-0.135 v -0.099 l 0.234,-0.135 v -0.099 l 0.234,-0.135 v -0.099 l 0.234,-0.135 v -0.099 l 0.234,-0.135 v -0.099 l 0.234,-0.135 v -0.099 l 0.234,-0.136 v -0.098 l 0.234,-0.135 v -0.099 l 0.234,-0.136 v -0.098 l 0.234,-0.136 v -0.098 l 0.234,-0.136 v -0.099 l 0.234,-0.135 v -0.099 l 0.234,-0.135 v -0.099 l 0.234,-0.135 v -0.099 l 0.234,-0.135 V 10.76 l 0.235,-0.135 v -0.099 l 0.234,-0.135 v -0.099 l 0.233,-0.135 v -0.099 l 0.235,-0.135 V 9.824 l 0.234,-0.135 V 9.59 l 0.234,-0.135 V 9.356 l 0.234,-0.135 V 9.122 l 0.234,-0.135 V 8.888 l 0.234,-0.135 V 8.654 l 0.234,-0.135 V 8.42 l 0.234,-0.135 V 8.186 l 0.234,-0.135 V 7.952 l 0.234,-0.135 V 7.718 l 0.234,-0.135 V 7.484 l 0.234,-0.135 V 7.25 l 0.234,-0.135 V 7.016 l 0.234,-0.135 V 6.782 l 0.234,-0.135 V 6.548 l 0.234,-0.135 V 6.314 l 0.234,-0.135 V 6.08 l 0.234,-0.135 V 5.846 l 0.234,-0.135 V 5.612 l 0.234,-0.135 V 5.378 l 0.234,-0.135 V 5.144 l 0.234,-0.135 V 4.91 l 0.234,-0.135 V 4.676 l 0.234,-0.136 V 4.442 l 0.234,-0.135 V 4.208 l 0.234,-0.136 V 3.974 l 0.234,-0.136 V 3.74 l 0.234,-0.135 v -0.1 l 0.234,-0.135 V 3.271 l 0.234,-0.135 V 3.038 l 0.234,-0.136 V 2.803 l 0.234,-0.135 V 2.569 l 0.235,-0.135 V 2.335 L -354.583,2.2 V 2.101 l 0.234,-0.135 V 1.867 l 0.235,-0.135 V 1.633 l 0.234,-0.135 V 1.399 l 0.234,-0.135 V 1.165 l 0.234,-0.135 V 0.931 l 0.234,-0.135 V 0.697 l 0.234,-0.135 V 0.463 l 0.234,-0.135 V 0.229 l 0.234,-0.135 v -0.099 l 0.234,-0.135 v -0.099 l 0.234,-0.135 v -0.099 l 0.234,-0.135 v -0.099 l 0.234,-0.135 v -0.099 l 0.234,-0.135 v -0.099 l 0.234,-0.135 v -0.099 l 0.234,-0.135 v -0.099 l 0.234,-0.135 v -0.099 l 0.234,-0.135 v -0.099 l 0.234,-0.135 v -0.099 l 0.234,-0.135 v -0.099 l 0.234,-0.135 v -0.099 l 0.234,-0.135 v -0.099 l 0.234,-0.135 v -0.099 l 0.234,-0.135 v -0.099 l 0.234,-0.136 v -0.098 l 0.234,-0.135 v -0.099 l 0.234,-0.136 v -0.098 l 0.234,-0.136 v -0.098 l 0.234,-0.135 v -0.1 l 0.234,-0.135 v -0.098 l 0.234,-0.136 v -0.098 l 0.234,-0.136 v -0.099 l 0.234,-0.135 v -0.099 l 0.234,-0.135 v -0.099 l 0.234,-0.135 V -6.09 l 0.234,-0.135 v -0.099 l 0.235,-0.135 v -0.099 l 0.234,-0.135 v -0.099 l 0.234,-0.135 v -0.099 l 0.234,-0.135 V -7.26 l 0.234,-0.135 v -0.099 l 0.234,-0.135 v -0.099 l 0.234,-0.135 v -0.099 l 0.234,-0.135 v -0.099 l 0.234,-0.135 V -8.43 l 0.234,-0.135 v -0.099 l 0.234,-0.135 v -0.099 l 0.234,-0.135 v -0.099 l 0.234,-0.135 v -0.099 l 0.234,-0.135 V -9.6 l 0.234,-0.135 v -0.099 l 0.234,-0.135 v -0.099 l 0.234,-0.135 v -0.099 l 0.234,-0.135 v -0.099 l 0.234,-0.135 v -0.099 l 0.234,-0.135 v -0.099 l 0.234,-0.135 v -0.099 l 0.234,-0.135 v -0.099 l 0.234,-0.135 v -0.099 l 0.234,-0.136 v -0.098 l 0.234,-0.135 v -0.099 l 0.234,-0.135 v -0.099 l 0.234,-0.136 v -0.098 l 0.234,-0.135 v -0.099 l 0.234,-0.136 v -0.098 l 0.234,-0.136 v -0.098 l 0.234,-0.136 v -0.099 l 0.234,-0.135 v -0.099 l 0.234,-0.135 v -0.099 l 0.234,-0.135 v -0.099 l 0.234,-0.135 v -0.099 l 0.235,-0.135 v -0.099 l 0.234,-0.135 v -0.099 l 0.234,-0.135 v -0.099 l 0.234,-0.135 v -0.099 l 0.234,-0.135 v -0.099 l 0.234,-0.135 v -0.099 l 0.234,-0.135 v -0.099 l 0.234,-0.135 v -0.099 l 0.234,-0.135 v -0.099 l 0.234,-0.135 v -0.099 l 0.234,-0.135 v -0.099 l 0.234,-0.135 v -0.099 l 0.234,-0.135 v -0.099 l 0.234,-0.135 v -0.099 l 0.234,-0.135 v -0.099 l 0.234,-0.135 v -0.099 l 0.234,-0.135 v -0.099 l 0.234,-0.135 v -0.099 l 0.234,-0.135 v -0.099 l 0.234,-0.135 v -0.099 l 0.234,-0.135 v -0.099 l 0.234,-0.135 v -0.099 l 0.234,-0.135 v -0.099 l 0.234,-0.136 v -0.098 l 0.234,-0.135 v -0.099 l 0.234,-0.135 v -0.099 l 0.234,-0.136 v -0.098 l 0.234,-0.135 v -0.099 l 0.234,-0.136 v -0.098 l 0.234,-0.136 v -0.098 l 0.234,-0.136 v -0.099 l 0.234,-0.135 v -0.099 l 0.234,-0.135 v -0.099 l 0.234,-0.135 v -0.099 l 0.235,-0.135 v -0.099 l 0.234,-0.135 v -0.099 l 0.234,-0.135 v -0.099 l 0.234,-0.135 v -0.099 l 0.234,-0.135 v -0.099 l 0.234,-0.135 v -0.099 l 0.234,-0.135 v -0.099 l 0.234,-0.135 v -0.099 l 0.234,-0.135 v -0.099 l 0.234,-0.135 v -0.099 l 0.234,-0.135 v -0.099 l 0.234,-0.135 v -0.099 l 0.234,-0.135 v -0.099 l 0.234,-0.135 v -0.099 l 0.234,-0.135 v -0.099 l 0.234,-0.135 v -0.099 l 0.234,-0.135 v -0.099 l 0.234,-0.135 v -0.099 l 0.234,-0.135 v -0.099 l 0.234,-0.135 v -0.099 l 0.234,-0.135 v -0.099 l 0.234,-0.135 v -0.099 l 0.234,-0.135 v -0.099 l 0.234,-0.135 v -0.099 l 0.234,-0.135 v -0.099 l 0.234,-0.135 v -0.099 l 0.234,-0.135 v -0.099 l 0.234,-0.136 v -0.098 l 0.234,-0.136 v -0.098 l 0.234,-0.136 v -0.098 l 0.234,-0.136 v -0.099 l 0.234,-0.135 v -0.099 l 0.234,-0.135 v -0.099 l 0.234,-0.135 v -0.099 l 0.234,-0.135 v -0.099 l 0.235,-0.135 v -0.099 l 0.233,-0.135 v -0.099 l 0.234,-0.135 v -0.099 l 0.235,-0.135 v -0.099 l 0.234,-0.135 v -0.099 l 0.234,-0.135 v -0.099 l 0.234,-0.135 v -0.099 l 0.234,-0.135 v -0.099 l 0.234,-0.135 v -0.099 l 0.234,-0.135 v -0.099 l 0.234,-0.135 v -0.099 l 0.234,-0.135 v -0.099 l 0.234,-0.135 v -0.099 l 0.234,-0.135 v -0.099 l 0.234,-0.135 v -0.099 l 0.234,-0.135 v -0.099 l 0.234,-0.135 v -0.099 l 0.234,-0.135 v -0.099 l 0.234,-0.135 v -0.099 l 0.234,-0.135 v -0.099 l 0.234,-0.135 v -0.099 l 0.234,-0.135 v -0.099 l 0.234,-0.135 v -0.099 l 0.234,-0.135 v -0.099 l 0.234,-0.135 v -0.099 l 0.234,-0.135 v -0.099 l 0.234,-0.136 v -0.098 l 0.234,-0.135 v -0.099 l 0.234,-0.136 v -0.098 l 0.234,-0.136 v -0.098 l 0.234,-0.135 v -0.1 l 0.234,-0.135 v -0.099 l 0.234,-0.135 v -0.098 l 0.234,-0.136 v -0.099 l 0.234,-0.135 v -0.099 l 0.235,-0.135 v -0.099 l 0.233,-0.135 v -0.099 l 0.234,-0.135 v -0.099 l 0.235,-0.135 v -0.099 l 0.234,-0.135 v -0.099 l 0.234,-0.135 v -0.099 l 0.234,-0.135 v -0.099 l 0.234,-0.135 v -0.099 l 0.234,-0.135 v -0.099 l 0.234,-0.135 v -0.099 l 0.234,-0.135 v -0.099 l 0.234,-0.135 v -0.099 l 0.234,-0.135 v -0.099 l 0.234,-0.135 v -0.099 l 0.234,-0.135 v -0.099 l 0.234,-0.135 v -0.099 l 0.234,-0.135 v -0.099 l 0.234,-0.135 v -0.099 l 0.234,-0.135 V -43.3 l 0.234,-0.135 v -0.099 l 0.234,-0.135 v -0.099 l 0.234,-0.135 v -0.099 l 0.234,-0.135 v -0.099 l 0.234,-0.135 v -0.099 l 0.234,-0.135 v -0.099 l 0.234,-0.135 v -0.099 l 0.234,-0.136 v -0.098 l 0.234,-0.135 v -0.099 l 0.234,-0.136 v -0.098 l 0.234,-0.136 v -0.098 l 0.234,-0.135 v -0.1 l 0.234,-0.135 v -0.098 l 0.234,-0.136 v -0.098 l 0.234,-0.136 v -0.099 l 0.234,-0.135 v -0.099 l 0.234,-0.135 v -0.099 l 0.234,-0.135 v -0.099 l 0.234,-0.135 v -0.099 l 0.235,-0.135 v -0.099 l 0.234,-0.135 v -0.099 l 0.234,-0.135 v -0.099 l 0.234,-0.135 v -0.099 l 0.234,-0.135 v -0.099 l 0.234,-0.135 v -0.099 l 0.234,-0.135 v -0.099 l 0.234,-0.135 v -0.099 l 0.234,-0.135 v -0.099 l 0.234,-0.135 v -0.099 l 0.234,-0.135 v -0.099 l 0.234,-0.135 v -0.099 l 0.234,-0.135 v -0.099 l 0.234,-0.135 v -0.099 l 0.234,-0.135 v -0.099 l 0.234,-0.135 v -0.099 l 0.234,-0.135 v -0.099 l 0.234,-0.135 v -0.099 l 0.234,-0.135 v -0.099 l 0.234,-0.135 v -0.099 l 0.234,-0.135 v -0.099 l 0.234,-0.135 v -0.099 l 0.234,-0.135 v -0.099 l 0.234,-0.136 v -0.098 l 0.234,-0.135 v -0.099 l 0.234,-0.135 v -0.099 l 0.234,-0.136 v -0.098 l 0.234,-0.135 v -0.099 l 0.234,-0.136 v -0.098 l 0.234,-0.136 v -0.098 l 0.234,-0.136 v -0.099 l 0.234,-0.135 v -0.099 l 0.234,-0.135 v -0.099 l 0.234,-0.135 v -0.099 l 0.234,-0.135 v -0.099 l 0.235,-0.135 v -0.099 l 0.233,-0.135 v -0.099 l 0.235,-0.135 v -0.099 l 0.234,-0.135 v -0.099 l 0.234,-0.135 v -0.099 l 0.234,-0.135 v -0.099 l 0.234,-0.135 v -0.099 l 0.234,-0.135 v -0.099 l 0.234,-0.135 v -0.099 l 0.234,-0.135 v -0.099 l 0.234,-0.135 v -0.099 l 0.234,-0.135 v -0.099 l 0.234,-0.135 v -0.099 l 0.234,-0.135 v -0.099 l 0.234,-0.135 v -0.099 l 0.234,-0.135 v -0.099 l 0.234,-0.135 v -0.099 l 0.234,-0.135 v -0.099 l 0.234,-0.135 v -0.099 l 0.234,-0.135 v -0.099 l 0.234,-0.135 v -0.099 l 0.234,-0.135 v -0.099 l 0.234,-0.135 v -0.099 l 0.234,-0.136 v -0.098 l 0.234,-0.135 v -0.099 l 0.234,-0.135 v -0.099 l 0.234,-0.136 v -0.098 l 0.234,-0.135 v -0.099 l 0.234,-0.136 v -0.098 l 0.234,-0.136 v -0.098 l 0.234,-0.135 v -0.1 l 0.234,-0.135 v -0.099 l 0.234,-0.135 v -0.099 l 0.234,-0.135 v -0.099 l 0.234,-0.135 v -0.099 l 0.235,-0.135 v -0.099 l 0.233,-0.135 v -0.099 l 0.235,-0.135 v -0.099 l 0.234,-0.135 v -0.099 l 0.234,-0.135 v -0.099 l 0.234,-0.135 v -0.099 l 0.234,-0.135 v -0.099 l 0.234,-0.135 v -0.099 l 0.234,-0.135 v -0.099 l 0.234,-0.135 v -0.099 l 0.234,-0.135 v -0.099 l 0.234,-0.135 v -0.099 l 0.234,-0.135 v -0.099 l 0.234,-0.135 v -0.099 l 0.234,-0.135 v -0.099 l 0.234,-0.135 v -0.099 l 0.234,-0.135 v -0.099 l 0.234,-0.135 v -0.099 l 0.234,-0.135 v -0.099 l 0.234,-0.135 v -0.099 l 0.234,-0.135 v -0.099 l 0.234,-0.135 v -0.099 l 0.234,-0.135 v -0.099 l 0.234,-0.135 v -0.099 l 0.234,-0.135 v -0.099 l 0.234,-0.135 v -0.099 l 0.234,-0.136 v -0.098 l 0.234,-0.135 v -0.099 l 0.234,-0.136 v -0.098 l 0.234,-0.136 v -0.099 l 0.234,-0.135 v -0.099 l 0.234,-0.135 v -0.099 l 0.234,-0.135 v -0.099 l 0.234,-0.135 v -0.099 l 0.235,-0.135 v -0.099 l 0.233,-0.135 v -0.099 l 0.234,-0.135 v -0.099 l 0.235,-0.135 v -0.099 l 0.234,-0.135 v -0.099 l 0.234,-0.135 v -0.099 l 0.234,-0.135 v -0.099 l 0.234,-0.135 v -0.099 l 0.234,-0.135 v -0.099 l 0.234,-0.135 v -0.099 l 0.234,-0.135 v -0.099 l 0.234,-0.135 v -0.099 l 0.234,-0.135 v -0.099 l 0.234,-0.135 v -0.099 l 0.234,-0.135 v -0.099 l 0.234,-0.135 v -0.099 l 0.234,-0.135 v -0.099 l 0.234,-0.135 v -0.099 l 0.234,-0.135 v -0.099 l 0.234,-0.135 v -0.099 l 0.234,-0.135 V -77 l 0.234,-0.135 v -0.099 l 0.234,-0.135 v -0.099 l 0.234,-0.135 v -0.099 l 0.234,-0.135 v -0.099 l 0.234,-0.135 v -0.099 l 0.234,-0.135 v -0.099 l 0.234,-0.136 v -0.098 l 0.234,-0.136 v -0.098 l 0.234,-0.136 v -0.098 l 0.234,-0.135 v -0.1 l 0.234,-0.135 v -0.099 l 0.234,-0.135 v -0.098 l 0.234,-0.136 v -0.099 l 0.234,-0.135 v -0.099 l 0.234,-0.135 v -0.099 l 0.234,-0.135 v -0.099 l 0.234,-0.135 v -0.099 l 0.235,-0.135 v -0.099 l 0.234,-0.135 v -0.099 l 0.234,-0.135 v -0.099 l 0.234,-0.135 v -0.099 l 0.234,-0.135 v -0.099 l 0.234,-0.135 v -0.099 l 0.234,-0.135 v -0.099 l 0.234,-0.135 v -0.099 l 0.234,-0.135 v -0.099 l 0.234,-0.135 v -0.099 l 0.234,-0.135 v -0.099 l 0.234,-0.135 v -0.099 l 0.234,-0.135 v -0.099 l 0.234,-0.135 v -0.099 l 0.234,-0.135 v -0.099 l 0.234,-0.135 v -0.099 l 0.234,-0.135 v -0.099 l 0.234,-0.135 v -0.099 l 0.234,-0.135 v -0.099 l 0.234,-0.135 v -0.099 l 0.234,-0.135 v -0.099 l 0.234,-0.135 v -0.099 l 0.234,-0.135 v -0.099 l 0.234,-0.136 v -0.098 l 0.234,-0.135 v -0.099 l 0.234,-0.135 v -0.099 l 0.234,-0.136 v -0.098 l 0.234,-0.135 v -0.1 l 0.234,-0.135 v -0.098 l 0.234,-0.136 v -0.098 l 0.234,-0.136 v -0.099 l 0.234,-0.135 v -0.099 l 0.234,-0.135 v -0.099 l 0.234,-0.135 v -0.099 l 0.234,-0.135 v -0.099 l 0.235,-0.135 v -0.099 l 0.234,-0.135 v -0.099 l 0.234,-0.135 v -0.099 l 0.234,-0.135 v -0.099 l 0.234,-0.135 v -0.099 l 0.234,-0.135 v -0.099 l 0.234,-0.135 v -0.099 l 0.234,-0.135 v -0.099 l 0.234,-0.135 v -0.099 l 0.234,-0.135 v -0.099 l 0.234,-0.135 v -0.099 l 0.234,-0.135 v -0.099 l 0.234,-0.135 v -0.099 l 0.234,-0.135 v -0.099 l 0.234,-0.135 v -0.099 l 0.234,-0.135 v -0.099 l 0.234,-0.135 v -0.099 l 0.234,-0.135 v -0.099 l 0.234,-0.135 v -0.099 l 0.234,-0.135 v -0.099 l 0.234,-0.135 v -0.099 l 0.234,-0.135 v -0.099 l 0.234,-0.135 v -0.099 l 0.234,-0.136 v -0.098 l 0.234,-0.135 v -0.099 l 0.234,-0.135 v -0.099 l 0.234,-0.136 v -0.098 l 0.234,-0.135 v -0.099 l 0.234,-0.136 v -0.098 l 0.234,-0.136 v -0.098 l 0.234,-0.136 v -0.099 l 0.234,-0.135 v -0.099 l 0.234,-0.135 v -0.099 l 0.234,-0.135 v -0.099 l 0.234,-0.135 v -0.099 l 0.235,-0.135 v -0.099 l 0.234,-0.135 v -0.099 l 0.233,-0.135 v -0.099 l 0.235,-0.135 v -0.099 l 0.234,-0.135 v -0.099 l 0.234,-0.135 v -0.099 l 0.234,-0.135 v -0.099 l 0.234,-0.135 v -0.099 l 0.234,-0.135 v -0.099 l 0.234,-0.135 v -0.099 l 0.234,-0.135 v -0.099 l 0.234,-0.135 v -0.099 l 0.234,-0.135 v -0.099 l 0.234,-0.135 v -0.099 l 0.234,-0.135 v -0.099 l 0.234,-0.135 v -0.099 l 0.234,-0.135 v -0.099 l 0.234,-0.135 v -0.099 l 0.234,-0.135 v -0.099 l 0.234,-0.135 v -0.099 l 0.234,-0.135 v -0.099 l 0.234,-0.135 v -0.099 l 0.234,-0.135 v -0.099 l 0.234,-0.135 v -0.099 l 0.234,-0.135 v -0.099 l 0.234,-0.135 v -0.099 l 0.234,-0.136 v -0.098 l 0.234,-0.135 v -0.099 l 0.234,-0.136 v -0.098 l 0.234,-0.136 v -0.098 l 0.234,-0.135 v -0.1 l 0.234,-0.135 v -0.099 l 0.234,-0.135 v -0.098 l 0.234,-0.136 v -0.099 l 0.234,-0.135 v -0.099 l 0.235,-0.135 v -0.099 l 0.233,-0.135 v -0.099 l 0.234,-0.135 v -0.099 l 0.235,-0.135 v -0.099 l 0.234,-0.135 v -0.099 l 0.234,-0.135 v -0.099 l 0.234,-0.135 v -0.099 l 0.234,-0.135 v -0.099 l 0.234,-0.135 v -0.099 l 0.234,-0.135 v -0.099 l 0.234,-0.135 v -0.099 l 0.234,-0.135 v -0.099 l 0.234,-0.135 v -0.099 l 0.234,-0.135 v -0.099 l 0.234,-0.135 v -0.099 l 0.234,-0.135 v -0.099 l 0.234,-0.135 v -0.099 l 0.234,-0.135 v -0.099 l 0.234,-0.135 v -0.099 l 0.234,-0.135 v -0.099 l 0.234,-0.135 v -0.099 l 0.234,-0.135 v -0.099 l 0.234,-0.135 v -0.099 l 0.234,-0.135 v -0.099 l 0.234,-0.135 v -0.099 l 0.234,-0.135 v -0.099 l 0.234,-0.136 v -0.098 l 0.234,-0.135 v -0.099 l 0.234,-0.136 v -0.098 l 0.234,-0.136 v -0.098 l 0.234,-0.135 v -0.1 l 0.234,-0.135 v -0.098 l 0.234,-0.136 v -0.098 l 0.234,-0.136 v -0.099 l 0.234,-0.135 v -0.099 l 0.234,-0.135 v -0.099 l 0.234,-0.135 v -0.099 l 0.235,-0.135 v -0.099 l 0.234,-0.135 v -0.099 l 0.234,-0.135 v -0.099 l 0.234,-0.135 v -0.099 l 0.234,-0.135 v -0.099 l 0.234,-0.135 v -0.099 l 0.234,-0.135 v -0.099 l 0.234,-0.135 v -0.099 l 0.234,-0.135 v -0.099 l 0.234,-0.135 v -0.099 l 0.234,-0.135 v -0.099 l 0.234,-0.135 v -0.099 l 0.234,-0.135 v -0.099 l 0.234,-0.135 v -0.099 l 0.234,-0.135 v -0.099 l 0.234,-0.135 v -0.099 l 0.234,-0.135 v -0.099 l 0.234,-0.135 v -0.099 l 0.234,-0.135 v -0.099 l 0.234,-0.135 v -0.099 l 0.234,-0.135 v -0.099 l 0.234,-0.135 v -0.099 l 0.234,-0.135 v -0.099 l 0.234,-0.135 v -0.099 l 0.234,-0.136 v -0.098 l 0.234,-0.135 v -0.099 l 0.234,-0.135 v -0.099 l 0.234,-0.136 v -0.099 l 0.234,-0.135 v -0.098 l 0.234,-0.136 v -0.098 l 0.234,-0.136 v -0.099 l 0.234,-0.135 v -0.099 l 0.234,-0.135 v -0.099 l 0.234,-0.135 v -0.099 l 0.234,-0.135 v -0.099 l 0.235,-0.135 v -0.099 l 0.234,-0.135 v -0.099 l 0.234,-0.135 v -0.099 l 0.234,-0.135 v -0.099 l 0.234,-0.135 v -0.099 l 0.234,-0.135 v -0.099 l 0.234,-0.135 v -0.099 l 0.234,-0.135 v -0.099 l 0.234,-0.135 v -0.099 l 0.234,-0.135 v -0.099 l 0.234,-0.135 v -0.099 l 0.234,-0.135 v -0.099 l 0.234,-0.135 v -0.099 l 0.234,-0.135 v -0.099 l 0.234,-0.135 v -0.099 l 0.234,-0.135 v -0.099 l 0.234,-0.135 v -0.099 l 0.234,-0.135 v -0.099 l 0.234,-0.135 v -0.099 l 0.234,-0.135 v -0.099 l 0.234,-0.135 v -0.099 l 0.234,-0.135 v -0.099 l 0.234,-0.135 v -0.099 l 0.234,-0.136 v -0.098 l 0.234,-0.135 v -0.099 l 0.234,-0.135 v -0.099 l 0.234,-0.136 v -0.098 l 0.234,-0.135 v -0.099 l 0.234,-0.136 v -0.098 l 54.33,-31.367 v 99.214 h 0.025 l 0.19,-0.234 h 0.044 l 0.19,-0.235 h 0.044 l 0.19,-0.234 h 0.044 l 0.19,-0.234 h 0.044 l 0.19,-0.234 h 0.044 l 0.19,-0.234 h 0.044 l 0.19,-0.234 h 0.044 l 0.19,-0.234 h 0.044 l 0.19,-0.234 h 0.044 l 0.19,-0.234 h 0.044 l 0.19,-0.234 h 0.044 l 0.19,-0.234 h 0.044 l 0.191,-0.234 h 0.043 l 0.19,-0.234 h 0.044 l 0.19,-0.234 h 0.044 l 0.191,-0.234 h 0.043 l 0.191,-0.234 h 0.043 l 0.191,-0.234 h 0.043 l 0.191,-0.234 h 0.043 l 0.191,-0.234 h 0.044 l 0.19,-0.234 h 0.044 l 0.19,-0.234 h 0.043 l 0.191,-0.234 h 0.044 l 0.19,-0.234 h 0.044 l 0.19,-0.234 h 0.044 l 0.19,-0.234 h 0.044 l 0.19,-0.234 h 0.044 l 0.19,-0.234 h 0.044 l 0.19,-0.234 h 0.044 l 0.19,-0.234 h 0.044 l 0.19,-0.234 h 0.044 l 0.19,-0.234 h 0.044 l 0.19,-0.234 h 0.044 l 0.19,-0.234 h 0.044 l 0.19,-0.234 h 0.044 l 0.19,-0.234 h 0.044 l 0.19,-0.235 h 0.044 l 0.19,-0.234 h 0.044 l 0.19,-0.234 h 0.044 l 0.19,-0.234 h 0.044 l 0.19,-0.234 h 0.044 l 0.19,-0.234 h 0.044 l 0.19,-0.234 h 0.044 l 0.19,-0.234 h 0.044 l 0.19,-0.234 h 0.044 l 0.19,-0.234 h 0.044 l 0.19,-0.234 h 0.044 l 0.19,-0.234 h 0.044 l 0.19,-0.234 h 0.044 l 0.191,-0.234 h 0.043 l 0.191,-0.234 h 0.043 l 0.191,-0.234 h 0.043 l 0.191,-0.234 h 0.043 l 0.191,-0.234 h 0.043 l 0.191,-0.234 h 0.044 l 0.19,-0.234 h 0.043 l 0.191,-0.234 h 0.043 l 0.191,-0.234 h 0.044 l 0.19,-0.234 h 0.044 l 0.19,-0.234 h 0.044 l 0.19,-0.234 h 0.044 l 0.19,-0.234 h 0.044 l 0.19,-0.234 h 0.044 l 0.19,-0.234 h 0.044 l 0.19,-0.234 h 0.044 l 0.19,-0.234 h 0.044 l 0.19,-0.234 h 0.044 l 0.19,-0.234 h 0.044 l 0.19,-0.234 h 0.044 l 0.19,-0.234 h 0.044 l 0.19,-0.234 h 0.044 l 0.19,-0.235 h 0.044 l 0.19,-0.234 h 0.044 l 0.19,-0.234 h 0.044 l 0.19,-0.234 h 0.044 l 0.19,-0.234 h 0.044 l 0.19,-0.234 h 0.044 l 0.19,-0.234 h 0.044 l 0.19,-0.234 h 0.044 l 0.19,-0.234 h 0.044 l 0.19,-0.234 h 0.044 l 0.19,-0.234 h 0.044 l 0.19,-0.234 h 0.044 l 0.19,-0.234 h 0.044 l 0.191,-0.234 h 0.043 l 0.191,-0.234 h 0.043 l 0.191,-0.234 h 0.043 l 0.191,-0.234 h 0.043 l 0.191,-0.234 h 0.043 l 0.191,-0.234 h 0.043 l 0.191,-0.234 h 0.043 l 0.191,-0.234 h 0.043 l 0.191,-0.234 h 0.044 l 0.19,-0.234 h 0.044 l 0.19,-0.234 h 0.044 l 0.19,-0.234 h 0.044 l 0.19,-0.234 h 0.044 l 0.19,-0.234 h 0.044 l 0.19,-0.234 h 0.044 l 0.19,-0.234 h 0.044 l 0.19,-0.234 h 0.044 l 0.19,-0.234 h 0.044 l 0.19,-0.234 h 0.044 l 0.19,-0.234 h 0.044 l 0.19,-0.234 h 0.044 l 0.19,-0.235 h 0.044 l 0.19,-0.234 h 0.044 l 0.19,-0.234 h 0.044 l 0.19,-0.234 h 0.044 l 0.19,-0.234 h 0.044 l 0.19,-0.234 h 0.044 l 0.19,-0.234 h 0.044 l 0.19,-0.234 h 0.044 l 0.19,-0.234 h 0.044 l 0.19,-0.234 h 0.044 l 0.19,-0.234 h 0.044 l 0.19,-0.234 h 0.044 l 0.19,-0.234 h 0.044 l 0.19,-0.234 h 0.044 l 0.191,-0.234 h 0.043 l 0.191,-0.234 h 0.043 l 0.191,-0.234 h 0.043 l 0.191,-0.234 h 0.043 l 0.191,-0.234 h 0.043 l 0.191,-0.234 h 0.043 l 0.191,-0.234 h 0.043 l 0.191,-0.234 h 0.043 l 0.191,-0.234 h 0.044 l 0.19,-0.234 h 0.044 l 0.19,-0.234 h 0.044 l 0.19,-0.234 h 0.044 l 0.19,-0.234 h 0.044 l 0.19,-0.234 h 0.044 l 0.19,-0.234 h 0.044 l 0.19,-0.234 h 0.044 l 0.19,-0.234 h 0.044 l 0.19,-0.234 h 0.044 l 0.19,-0.234 h 0.044 l 0.19,-0.234 h 0.044 l 0.19,-0.234 h 0.044 l 0.19,-0.235 h 0.044 l 0.19,-0.234 h 0.044 l 0.19,-0.233 h 0.044 l 0.19,-0.235 h 0.044 l 0.19,-0.234 h 0.044 l 0.19,-0.234 h 0.044 l 0.19,-0.234 h 0.044 l 0.19,-0.234 h 0.044 l 0.19,-0.234 h 0.044 l 0.19,-0.234 h 0.044 l 0.19,-0.234 h 0.044 l 0.19,-0.234 h 0.044 l 0.19,-0.234 h 0.044 l 0.19,-0.234 h 0.044 l 0.191,-0.234 h 0.043 l 0.191,-0.234 h 0.043 l 0.19,-0.234 h 0.044 l 0.191,-0.234 h 0.043 l 0.191,-0.234 h 0.043 l 0.191,-0.234 h 0.043 l 0.191,-0.234 h 0.043 l 0.191,-0.234 h 0.043 l 0.191,-0.234 h 0.044 l 0.19,-0.234 h 0.044 l 0.19,-0.234 h 0.043 l 0.191,-0.234 h 0.044 l 0.19,-0.234 h 0.044 l 0.19,-0.234 h 0.044 l 0.19,-0.234 h 0.044 l 0.19,-0.234 h 0.044 l 0.19,-0.234 h 0.044 l 0.19,-0.234 h 0.044 l 0.19,-0.234 h 0.044 l 0.19,-0.234 h 0.044 l 0.19,-0.234 h 0.044 l 0.19,-0.235 h 0.044 l 0.19,-0.233 h 0.044 l 0.19,-0.234 h 0.044 l 0.19,-0.235 h 0.044 l 0.19,-0.234 h 0.044 l 0.19,-0.234 h 0.044 l 0.19,-0.234 h 0.044 l 0.19,-0.234 h 0.044 l 0.19,-0.234 h 0.044 l 0.19,-0.234 h 0.044 l 0.19,-0.234 h 0.044 l 0.19,-0.234 h 0.044 l 0.19,-0.234 h 0.044 l 0.19,-0.234 h 0.044 l 0.191,-0.234 h 0.043 l 0.19,-0.234 h 0.044 l 0.19,-0.234 h 0.044 l 0.191,-0.234 h 0.043 l 0.191,-0.234 h 0.043 l 0.191,-0.234 h 0.043 l 0.191,-0.234 h 0.043 l 0.191,-0.234 h 0.043 l 0.191,-0.234 h 0.044 l 0.19,-0.234 h 0.043 l 0.191,-0.234 h 0.044 l 0.19,-0.234 h 0.044 l 0.19,-0.234 h 0.044 l 0.19,-0.234 h 0.044 l 0.19,-0.234 h 0.044 l 0.19,-0.234 h 0.044 l 0.19,-0.234 h 0.044 l 0.19,-0.234 h 0.044 l 0.19,-0.234 h 0.044 l 0.19,-0.234 h 0.044 l 0.19,-0.234 h 0.044 l 0.19,-0.234 h 0.044 l 0.19,-0.234 h 0.044 l 0.19,-0.234 h 0.044 l 0.19,-0.235 h 0.044 l 0.19,-0.234 h 0.044 l 0.19,-0.234 h 0.044 l 0.19,-0.234 h 0.044 l 0.19,-0.234 h 0.044 l 0.19,-0.234 h 0.044 l 0.19,-0.234 h 0.044 l 0.19,-0.234 h 0.044 l 0.19,-0.234 h 0.044 l 0.19,-0.234 h 0.044 l 0.19,-0.234 h 0.044 l 0.19,-0.234 h 0.044 l 0.19,-0.234 h 0.044 l 0.19,-0.234 h 0.044 l 0.191,-0.234 h 0.043 l 0.191,-0.234 h 0.043 l 0.191,-0.234 h 0.043 l 0.191,-0.234 h 0.043 l 0.191,-0.234 h 4.737 l 3.816,4.706 v -0.304 l 0.234,0.135 v -0.369 l 0.234,0.135 v -0.369 l 0.234,0.135 v -0.369 l 0.234,0.135 v -0.369 l 0.234,0.135 v -0.369 l 0.234,0.135 v -0.369 l 0.234,0.135 v -0.369 l 0.234,0.135 v -0.369 l 0.234,0.135 v -0.369 l 0.234,0.135 v -0.369 l 0.234,0.135 v -0.369 l 0.234,0.135 v -0.369 l 0.234,0.135 v -0.369 l 0.234,0.135 v -0.369 l 0.234,0.135 v -0.37 l 0.234,0.136 v -0.37 l 0.234,0.136 v -0.37 l 0.234,0.136 v -0.37 l 0.234,0.135 v -0.369 l 0.234,0.135 v -0.369 l 0.235,0.136 v -0.37 l 0.234,0.135 v -0.369 l 0.234,0.135 v -0.369 l 0.234,0.135 v -0.369 l 0.234,0.135 v -0.369 l 0.234,0.135 v -0.369 l 0.234,0.135 v -0.369 l 0.234,0.135 v -0.369 l 0.234,0.135 v -0.369 l 0.234,0.135 v -0.369 l 0.234,0.135 v -0.369 l 0.234,0.135 v -0.369 l 0.234,0.135 v -0.369 l 0.234,0.135 v -0.369 l 0.234,0.135 v -0.369 l 0.234,0.135 v -0.369 l 0.234,0.135 v -0.369 l 0.234,0.135 v -0.369 l 0.234,0.135 v -0.369 l 0.234,0.135 v -0.369 l 0.234,0.135 v -0.369 l 0.234,0.135 v -0.369 l 0.234,0.135 v -0.369 l 0.234,0.135 v -0.369 l 0.234,0.135 v -0.369 l 0.234,0.135 v -0.369 l 0.234,0.135 v -0.369 l 0.234,0.135 v -0.369 l 0.234,0.135 v -0.369 l 0.234,0.135 v -0.37 l 0.234,0.136 v -0.37 l 0.234,0.136 v -0.37 l 0.234,0.136 v -0.37 l 0.234,0.135 v -0.369 l 0.234,0.135 v -0.369 l 0.235,0.135 v -0.369 l 0.234,0.135 v -0.369 l 0.233,0.135 v -0.369 l 0.235,0.135 v -0.369 l 0.234,0.135 v -0.369 l 0.234,0.135 v -0.369 l 0.234,0.135 v -0.369 l 0.234,0.135 v -0.369 l 0.234,0.135 v -0.369 l 0.234,0.135 v -0.369 l 0.234,0.135 v -0.369 l 0.234,0.135 v -0.369 l 0.234,0.135 v -0.369 l 0.234,0.135 v -0.369 l 0.234,0.135 v -0.369 l 0.234,0.135 v -0.369 l 0.234,0.135 v -0.369 l 0.234,0.135 v -0.369 l 0.234,0.135 v -0.369 l 0.234,0.135 v -0.369 l 0.234,0.135 v -0.369 l 0.234,0.135 v -0.369 l 0.234,0.135 v -0.369 l 0.234,0.135 v -0.369 l 0.234,0.135 v -0.369 l 0.234,0.135 v -0.369 l 0.234,0.135 v -0.369 l 0.234,0.135 v -0.369 l 0.234,0.135 v -0.37 l 0.234,0.136 v -0.37 l 0.234,0.136 v -0.37 l 0.234,0.136 v -0.37 l 0.234,0.136 v -0.37 l 0.234,0.135 v -0.369 l 0.234,0.135 v -0.369 l 0.235,0.136 v -0.37 l 0.233,0.135 v -0.369 l 0.235,0.136 v -0.37 l 0.234,0.135 v -0.369 l 0.234,0.135 v -0.369 l 0.234,0.135 v -0.369 l 0.234,0.135 v -0.369 l 0.234,0.135 v -0.369 l 0.234,0.135 v -0.369 l 0.234,0.135 v -0.369 l 0.234,0.135 v -0.369 l 0.234,0.135 v -0.369 l 0.234,0.135 v -0.369 l 0.234,0.135 v -0.369 l 0.234,0.135 v -0.369 l 0.234,0.135 v -0.369 l 0.234,0.135 v -0.369 l 0.234,0.135 v -0.369 l 0.234,0.135 v -0.369 l 0.234,0.135 v -0.369 l 0.234,0.135 v -0.369 l 0.234,0.135 v -0.369 l 0.234,0.135 v -0.369 l 0.234,0.135 v -0.369 l 0.234,0.135 v -0.369 l 0.234,0.135 v -0.369 l 0.234,0.135 v -0.369 l 0.234,0.135 v -0.369 l 0.234,0.135 v -0.37 l 0.234,0.136 v -0.37 l 0.234,0.136 v -0.369 l 0.234,0.135 v -0.37 l 0.234,0.135 v -0.369 l 0.234,0.135 v -0.369 l 0.235,0.136 v -0.37 l 0.233,0.135 v -0.369 l 0.234,0.135 v -0.369 l 0.235,0.136 v -0.37 l 0.234,0.135 v -0.369 l 0.234,0.135 v -0.369 l 0.234,0.135 v -0.369 l 0.234,0.135 v -0.369 l 0.234,0.135 v -0.369 l 0.234,0.135 v -0.369 l 0.234,0.135 v -0.369 l 0.234,0.135 v -0.369 l 0.234,0.135 v -0.369 l 0.234,0.135 v -0.369 l 0.234,0.135 v -0.369 l 0.234,0.135 v -0.369 l 0.234,0.135 v -0.369 l 0.234,0.135 v -0.369 l 0.234,0.135 v -0.369 l 0.234,0.135 v -0.369 l 0.234,0.135 v -0.369 l 0.234,0.135 v -0.369 l 0.234,0.135 v -0.369 l 0.234,0.135 v -0.369 l 0.234,0.135 v -0.369 l 0.234,0.135 v -0.369 l 0.234,0.135 v -0.369 l 0.234,0.135 v -0.369 l 0.234,0.135 v -0.369 l 0.234,0.135 v -0.37 l 0.234,0.136 v -0.369 l 0.234,0.135 v -0.369 l 0.234,0.135 v -0.37 l 0.234,0.135 v -0.369 l 0.234,0.135 v -0.369 l 0.234,0.136 v -0.37 l 0.234,0.135 v -0.369 l 0.234,0.135 v -0.369 l 0.235,0.136 v -0.37 l 0.234,0.135 v -0.369 l 0.233,0.135 v -0.369 l 0.235,0.136 v -0.37 l 0.234,0.135 v -0.369 l 0.234,0.135 v -0.369 l 0.234,0.135 v -0.369 l 0.234,0.135 v -0.369 l 0.234,0.135 v -0.369 l 0.234,0.135 v -0.369 l 0.234,0.135 v -0.369 l 0.234,0.135 v -0.369 l 0.234,0.135 v -0.369 l 0.234,0.135 v -0.369 l 0.234,0.135 v -0.369 l 0.234,0.135 v -0.369 l 0.234,0.135 v -0.369 l 0.234,0.135 v -0.369 l 0.234,0.135 v -0.369 l 0.234,0.135 v -0.369 l 0.234,0.135 v -0.369 l 0.234,0.135 v -0.369 l 0.234,0.135 v -0.369 l 0.234,0.135 v -0.369 l 0.234,0.135 v -0.369 l 0.234,0.135 v -0.369 l 0.234,0.135 v -0.369 l 0.234,0.135 v -0.369 l 0.234,0.135 v -0.369 l 0.234,0.135 v -0.37 l 0.234,0.135 v -0.369 l 0.234,0.136 v -0.37 l 0.234,0.136 v -0.37 l 0.234,0.135 v -0.369 l 0.234,0.135 v -0.369 l 0.235,0.136 v -0.37 l 0.233,0.135 v -0.369 l 0.234,0.135 v -0.369 l 0.235,0.136 v -0.37 l 0.234,0.135 v -0.369 l 0.234,0.135 v -0.369 l 0.234,0.135 v -0.369 l 0.234,0.135 v -0.369 l 0.234,0.135 v -0.369 l 0.234,0.135 v -0.369 l 0.234,0.135 v -0.369 l 0.234,0.135 v -0.369 l 0.234,0.135 v -0.369 l 0.234,0.135 v -0.369 l 0.234,0.135 v -0.369 l 0.234,0.135 v -0.369 l 0.234,0.135 v -0.369 l 0.234,0.135 v -0.369 l 56.052,32.362 V -0.135 Z" /></g></g></g></g></g></g><g
       id="g192"><g
         clip-path="url(#clipPath198)"
         id="g194"><g
           transform="translate(196.842,149.6998)"
           id="g200"><path
             inkscape:connector-curvature="0"
             id="path202"
             style="fill:#ffffff;fill-opacity:1;fill-rule:nonzero;stroke:none"
             d="M 0,0 H 4.738 L 58.869,66.768 V -45.914 l 56.052,32.362 v 129.053 l -53.717,31.014 -58.189,-70.7 -57.913,70.694 -53.707,-31.008 V -13.552 l 54.329,-31.367 V 66.768 Z" /></g></g></g></g></svg>
